<svg width="20" height="14" viewBox="0 0 20 14" fill="none" xmlns="http://www.w3.org/2000/svg">
<path d="M13.3565 0.346534C13.2612 0.455653 13.1855 0.585267 13.1339 0.727954C13.0823 0.870642 13.0557 1.0236 13.0557 1.17808C13.0557 1.33256 13.0823 1.48552 13.1339 1.62821C13.1855 1.77089 13.2612 1.90051 13.3565 2.00962L17.3373 6.58607L13.3462 11.1625C13.1539 11.3831 13.0459 11.6822 13.0459 11.9941C13.0459 12.306 13.1539 12.6051 13.3462 12.8256C13.5386 13.0461 13.7994 13.17 14.0714 13.17C14.3434 13.17 14.6043 13.0461 14.7966 12.8256L19.518 7.41172C19.6134 7.3026 19.689 7.17299 19.7407 7.0303C19.7923 6.88761 19.8188 6.73465 19.8188 6.58017C19.8188 6.4257 19.7923 6.27274 19.7407 6.13005C19.689 5.98736 19.6134 5.85775 19.518 5.74863L14.7966 0.334741C14.4057 -0.113468 13.7577 -0.11347 13.3565 0.346534Z" fill="#293646"/>
<path d="M6.91708 0.346534C6.82172 0.455653 6.74607 0.585267 6.69445 0.727954C6.64284 0.870642 6.61627 1.0236 6.61627 1.17808C6.61627 1.33256 6.64284 1.48552 6.69445 1.62821C6.74607 1.77089 6.82172 1.90051 6.91708 2.00962L10.8979 6.58607L6.9068 11.1625C6.71446 11.3831 6.60641 11.6822 6.60641 11.9941C6.60641 12.306 6.71446 12.6051 6.9068 12.8256C7.09913 13.0461 7.35998 13.17 7.63198 13.17C7.90398 13.17 8.16483 13.0461 8.35716 12.8256L13.0786 7.41172C13.1739 7.3026 13.2496 7.17299 13.3012 7.0303C13.3528 6.88761 13.3794 6.73465 13.3794 6.58017C13.3794 6.4257 13.3528 6.27274 13.3012 6.13005C13.2496 5.98736 13.1739 5.85775 13.0786 5.74863L8.35716 0.334741C7.96629 -0.113468 7.31825 -0.11347 6.91708 0.346534Z" fill="#293646" fill-opacity="0.56"/>
<path d="M0.310637 0.346534C0.21528 0.455653 0.139627 0.585267 0.0880084 0.727954C0.0363903 0.870642 0.00982043 1.0236 0.00982042 1.17808C0.00982041 1.33256 0.0363902 1.48552 0.0880083 1.62821C0.139626 1.77089 0.215279 1.90051 0.310637 2.00962L4.29144 6.58607L0.30035 11.1625C0.108019 11.3831 -3.13578e-05 11.6822 -3.13816e-05 11.9941C-3.14054e-05 12.306 0.108019 12.6051 0.30035 12.8256C0.492681 13.0461 0.753537 13.17 1.02553 13.17C1.29753 13.17 1.55839 13.0461 1.75072 12.8256L6.47213 7.41172C6.56749 7.3026 6.64314 7.17299 6.69476 7.0303C6.74638 6.88761 6.77295 6.73465 6.77295 6.58017C6.77295 6.4257 6.74638 6.27274 6.69476 6.13005C6.64314 5.98736 6.56749 5.85775 6.47213 5.74863L1.75072 0.334741C1.35984 -0.113468 0.711803 -0.11347 0.310637 0.346534Z" fill="#293646" fill-opacity="0.25"/>
</svg>
