<svg width="16" height="16" viewBox="0 0 16 16" fill="none" xmlns="http://www.w3.org/2000/svg">
<path d="M0 13.4719C0 14.8191 1.03021 15.8494 2.3774 15.8494H13.4719C14.8191 15.8494 15.8494 14.8191 15.8494 13.4719V7.13221H0V13.4719ZM13.4719 1.58494H11.887V0.792468C11.887 0.316987 11.57 0 11.0945 0C10.6191 0 10.3021 0.316987 10.3021 0.792468V1.58494H5.54727V0.792468C5.54727 0.316987 5.23029 0 4.75481 0C4.27932 0 3.96234 0.316987 3.96234 0.792468V1.58494H2.3774C1.03021 1.58494 0 2.61514 0 3.96234V5.54727H15.8494V3.96234C15.8494 2.61514 14.8191 1.58494 13.4719 1.58494Z" fill="white"/>
</svg>
