<svg width="17" height="16" viewBox="0 0 17 16" fill="none" xmlns="http://www.w3.org/2000/svg">
<path d="M1.73013 8.80519H7.01325C7.24677 8.80519 7.47074 8.71243 7.63587 8.5473C7.801 8.38217 7.89377 8.1582 7.89377 7.92468V0.88052C7.89377 0.646991 7.801 0.423028 7.63587 0.257898C7.47074 0.0927687 7.24677 0 7.01325 0H1.73013C1.4966 0 1.27264 0.0927687 1.10751 0.257898C0.942378 0.423028 0.849609 0.646991 0.849609 0.88052V7.92468C0.849609 8.1582 0.942378 8.38217 1.10751 8.5473C1.27264 8.71243 1.4966 8.80519 1.73013 8.80519ZM0.849609 14.9688C0.849609 15.2024 0.942378 15.4263 1.10751 15.5915C1.27264 15.7566 1.4966 15.8494 1.73013 15.8494H7.01325C7.24677 15.8494 7.47074 15.7566 7.63587 15.5915C7.801 15.4263 7.89377 15.2024 7.89377 14.9688V11.4468C7.89377 11.2132 7.801 10.9893 7.63587 10.8241C7.47074 10.659 7.24677 10.5662 7.01325 10.5662H1.73013C1.4966 10.5662 1.27264 10.659 1.10751 10.8241C0.942378 10.9893 0.849609 11.2132 0.849609 11.4468V14.9688ZM9.6548 14.9688C9.6548 15.2024 9.74757 15.4263 9.9127 15.5915C10.0778 15.7566 10.3018 15.8494 10.5353 15.8494H15.8184C16.052 15.8494 16.2759 15.7566 16.4411 15.5915C16.6062 15.4263 16.699 15.2024 16.699 14.9688V8.80519C16.699 8.57167 16.6062 8.3477 16.4411 8.18257C16.2759 8.01744 16.052 7.92468 15.8184 7.92468H10.5353C10.3018 7.92468 10.0778 8.01744 9.9127 8.18257C9.74757 8.3477 9.6548 8.57167 9.6548 8.80519V14.9688ZM10.5353 6.16364H15.8184C16.052 6.16364 16.2759 6.07087 16.4411 5.90574C16.6062 5.74061 16.699 5.51665 16.699 5.28312V0.88052C16.699 0.646991 16.6062 0.423028 16.4411 0.257898C16.2759 0.0927687 16.052 0 15.8184 0H10.5353C10.3018 0 10.0778 0.0927687 9.9127 0.257898C9.74757 0.423028 9.6548 0.646991 9.6548 0.88052V5.28312C9.6548 5.51665 9.74757 5.74061 9.9127 5.90574C10.0778 6.07087 10.3018 6.16364 10.5353 6.16364Z" fill="white"/>
</svg>
