<svg width="15" height="15" viewBox="0 0 15 15" fill="none" xmlns="http://www.w3.org/2000/svg">
<path d="M8.68626 1.16658C8.38538 0.913001 8.00456 0.773926 7.61107 0.773926C7.21759 0.773926 6.83677 0.913001 6.53589 1.16658L1.53071 5.38947C1.34493 5.54604 1.19559 5.7413 1.09313 5.9616C0.990663 6.18189 0.93755 6.42191 0.9375 6.66486V13.5646C0.9375 14.2809 1.51884 14.8622 2.23514 14.8622H4.45966C4.80382 14.8622 5.13388 14.7255 5.37723 14.4822C5.62059 14.2388 5.7573 13.9088 5.7573 13.5646V10.5963C5.7573 10.0921 6.1592 9.6828 6.65972 9.66946H8.56243C8.80399 9.67584 9.03351 9.7763 9.20207 9.94944C9.37064 10.1226 9.46493 10.3547 9.46484 10.5963V13.5646C9.46484 14.2809 10.0462 14.8622 10.7625 14.8622H12.987C13.3312 14.8622 13.6612 14.7255 13.9046 14.4822C14.1479 14.2388 14.2846 13.9088 14.2846 13.5646V6.66412C14.2846 6.42116 14.2315 6.18115 14.129 5.96086C14.0266 5.74056 13.8772 5.5453 13.6914 5.38873L8.68626 1.16658Z" fill="white"/>
</svg>
