<svg width="33" height="35" viewBox="0 0 33 35" fill="none" xmlns="http://www.w3.org/2000/svg">
<path d="M17.0696 32.1104L17.9191 33.921H17.9191L17.0696 32.1104ZM16.3047 32.1104L17.1543 30.2998L17.1543 30.2998L16.3047 32.1104ZM28.5047 15.4088C28.5047 19.5581 26.1595 22.9762 23.2756 25.6037C20.4073 28.2172 17.2519 29.8156 16.22 30.2998L17.9191 33.921C19.1152 33.3597 22.6774 31.5602 25.9696 28.5605C29.2463 25.575 32.5047 21.165 32.5047 15.4088H28.5047ZM16.6871 4.28381C23.3119 4.28381 28.5047 9.3603 28.5047 15.4088H32.5047C32.5047 6.95985 25.3248 0.283813 16.6871 0.283813V4.28381ZM4.86963 15.4088C4.86963 9.3603 10.0624 4.28381 16.6871 4.28381V0.283813C8.04952 0.283813 0.869629 6.95985 0.869629 15.4088H4.86963ZM17.1543 30.2998C16.1224 29.8156 12.967 28.2172 10.0987 25.6037C7.21484 22.9762 4.86963 19.5581 4.86963 15.4088H0.869629C0.869629 21.165 4.12798 25.575 7.40469 28.5605C10.6969 31.5602 14.259 33.3597 15.4552 33.921L17.1543 30.2998ZM16.22 30.2998C16.5122 30.1627 16.8621 30.1627 17.1543 30.2998L15.4552 33.921C16.2394 34.2889 17.1349 34.2889 17.9191 33.921L16.22 30.2998ZM20.6089 15.4088C20.6089 17.3152 18.9512 19.0338 16.6871 19.0338V23.0338C20.9641 23.0338 24.6089 19.7156 24.6089 15.4088H20.6089ZM16.6871 11.7838C18.9512 11.7838 20.6089 13.5024 20.6089 15.4088H24.6089C24.6089 11.102 20.9641 7.78381 16.6871 7.78381V11.7838ZM12.7654 15.4088C12.7654 13.5024 14.4231 11.7838 16.6871 11.7838V7.78381C12.4102 7.78381 8.76535 11.102 8.76535 15.4088H12.7654ZM16.6871 19.0338C14.4231 19.0338 12.7654 17.3152 12.7654 15.4088H8.76535C8.76535 19.7156 12.4102 23.0338 16.6871 23.0338V19.0338Z" fill="#0F9565"/>
</svg>
