<svg width="15" height="18" viewBox="0 0 15 18" fill="none" xmlns="http://www.w3.org/2000/svg">
<path d="M13.5 7C13.5 11.6667 7.5 15.6667 7.5 15.6667C7.5 15.6667 1.5 11.6667 1.5 7C1.5 5.4087 2.13214 3.88258 3.25736 2.75736C4.38258 1.63214 5.9087 1 7.5 1C9.0913 1 10.6174 1.63214 11.7426 2.75736C12.8679 3.88258 13.5 5.4087 13.5 7Z" stroke="#E89C1E" stroke-width="2" stroke-linecap="round" stroke-linejoin="round"/>
<path d="M7.5 9C8.60457 9 9.5 8.10457 9.5 7C9.5 5.89543 8.60457 5 7.5 5C6.39543 5 5.5 5.89543 5.5 7C5.5 8.10457 6.39543 9 7.5 9Z" stroke="#E89C1E" stroke-width="2" stroke-linecap="round" stroke-linejoin="round"/>
</svg>
