<svg width="32" height="27" viewBox="0 0 32 27" fill="none" xmlns="http://www.w3.org/2000/svg">
<path fill-rule="evenodd" clip-rule="evenodd" d="M0 24.9881C0 17.3324 0 9.67666 0 2.02098C0.0179451 1.98047 0.041247 1.94143 0.0530319 1.89918C0.399547 0.656348 1.234 0.00188544 2.50683 0.00148368C11.2446 -0.00106078 19.9824 -0.000993761 28.7201 0.00509955C29.0058 0.00530043 29.3036 0.0395171 29.5749 0.124355C30.621 0.451787 31.2157 1.35212 31.2151 2.57119C31.212 9.84694 31.2073 17.1228 31.203 24.3986C31.202 26.0194 30.2206 26.999 28.5961 26.9991C22.8602 26.9995 17.1243 26.9992 11.3884 26.9992C8.40884 26.9992 5.42928 27.0014 2.44978 26.9979C1.4411 26.9967 0.700798 26.5375 0.241523 25.6419C0.136397 25.4367 0.0792801 25.2067 0 24.9881ZM1.33919 5.79737C1.33919 5.93115 1.33919 6.03038 1.33919 6.12975C1.33919 12.2446 1.33886 18.3596 1.33966 24.4744C1.33973 25.2506 1.75702 25.6597 2.54587 25.6598C11.2495 25.6602 19.9531 25.6602 28.6568 25.6598C29.4598 25.6597 29.8624 25.2516 29.8638 24.4414C29.8682 21.9868 29.8747 19.5321 29.876 17.0773C29.8781 13.4397 29.8768 9.80194 29.8759 6.1643C29.8759 6.04605 29.8651 5.92794 29.8589 5.79743C20.3461 5.79736 10.8657 5.79737 1.33919 5.79737ZM29.8634 4.42925C29.8634 3.67207 29.8928 2.93699 29.8456 2.20686C29.8312 1.98449 29.6543 1.6977 29.4649 1.58005C29.2187 1.42692 28.886 1.34898 28.5904 1.34857C19.944 1.33706 11.2975 1.33927 2.65099 1.33947C2.53944 1.33947 2.42762 1.33726 2.3164 1.34449C1.83482 1.3759 1.387 1.73955 1.36102 2.21818C1.32145 2.94857 1.35064 3.68265 1.35064 4.42925C10.8582 4.42925 20.3384 4.42925 29.8634 4.42925Z" fill="#393737"/>
<path fill-rule="evenodd" clip-rule="evenodd" d="M11.8909 12.1171C11.9881 12.0508 12.0473 12.0058 12.1108 11.9679C12.4339 11.7756 12.7946 11.833 13.01 12.1091C13.235 12.3974 13.1998 12.7761 12.9017 13.035C12.641 13.2613 12.369 13.4761 12.0881 13.6765C11.9258 13.7923 11.8654 13.9205 11.8675 14.1204C11.8777 15.0791 11.8731 16.038 11.8717 16.9968C11.8709 17.6213 11.6452 17.8544 11.0349 17.8548C9.29566 17.8565 7.55639 17.8567 5.81718 17.8546C5.24254 17.8538 5.00436 17.6193 5.00302 17.0395C4.99894 15.3003 4.99907 13.561 5.00295 11.8218C5.00429 11.2268 5.23805 11.0022 5.84544 11.0014C7.5513 10.9991 9.25709 10.9999 10.9629 11.0008C11.6589 11.0011 11.8544 11.1936 11.8727 11.8873C11.8742 11.949 11.8822 12.0103 11.8909 12.1171ZM10.5238 14.9164C10.065 15.2743 9.65872 15.5993 9.24363 15.9127C8.86297 16.2003 8.53172 16.1636 8.21614 15.803C7.87083 15.4085 7.53088 15.0093 7.19387 14.6078C6.89972 14.2573 6.91076 13.8551 7.21282 13.5992C7.52083 13.3383 7.89353 13.3896 8.21119 13.7434C8.43322 13.9907 8.64823 14.2445 8.87382 14.5039C9.27993 14.1846 9.6403 13.8414 10.0562 13.5899C10.5596 13.2855 10.6113 12.8742 10.4942 12.3656C9.12076 12.3656 7.74595 12.3656 6.36357 12.3656C6.36357 13.7582 6.36357 15.1246 6.36357 16.4891C7.76282 16.4891 9.13891 16.4891 10.5238 16.4891C10.5238 15.9729 10.5238 15.4837 10.5238 14.9164Z" fill="#CA282C"/>
<path fill-rule="evenodd" clip-rule="evenodd" d="M20.5837 13.6367C18.9216 13.6367 17.2594 13.6459 15.5975 13.6257C15.3768 13.6229 15.105 13.5256 14.9493 13.3759C14.6309 13.0698 14.7849 12.5194 15.2025 12.3609C15.3334 12.3112 15.4854 12.3003 15.6278 12.3001C18.9295 12.2969 22.2314 12.2977 25.5332 12.2977C25.5778 12.2977 25.6225 12.2965 25.667 12.2982C26.0946 12.3146 26.3954 12.5914 26.3962 12.9685C26.3971 13.3483 26.0999 13.6316 25.6698 13.6342C24.6326 13.6407 23.5953 13.6367 22.5581 13.6369C21.9 13.6369 21.2419 13.6368 20.5837 13.6367Z" fill="#393737"/>
<path fill-rule="evenodd" clip-rule="evenodd" d="M20.5793 15.2239C22.2856 15.2243 23.9919 15.2214 25.6982 15.2266C26.0966 15.2278 26.3718 15.4874 26.3948 15.8492C26.4179 16.2127 26.141 16.5137 25.7383 16.5563C25.6389 16.5668 25.5377 16.5625 25.4374 16.5625C24.5898 16.5629 23.7421 16.5627 22.8945 16.5627C20.5184 16.5627 18.1423 16.5627 15.7663 16.5626C15.6659 16.5626 15.5651 16.5669 15.4653 16.5584C15.0509 16.5233 14.781 16.2481 14.7877 15.873C14.7945 15.5003 15.0785 15.23 15.4925 15.2259C16.2176 15.2189 16.9427 15.2236 17.6678 15.2235C18.6384 15.2234 19.6089 15.2235 20.5793 15.2239Z" fill="#393737"/>
<path fill-rule="evenodd" clip-rule="evenodd" d="M28.5894 2.90393C28.5822 3.26056 28.2729 3.55973 27.9196 3.55203C27.5665 3.54433 27.2634 3.22955 27.2711 2.87842C27.2788 2.52447 27.5926 2.22268 27.9448 2.23052C28.3005 2.23842 28.5967 2.54777 28.5894 2.90393Z" fill="#CA282C"/>
<path fill-rule="evenodd" clip-rule="evenodd" d="M25.9732 2.90565C25.964 3.2602 25.6502 3.56098 25.2985 3.55208C24.9457 3.54324 24.6432 3.22706 24.652 2.87639C24.661 2.52318 24.9765 2.22159 25.3278 2.23056C25.6823 2.23981 25.9821 2.55338 25.9732 2.90565Z" fill="#CA282C"/>
<path fill-rule="evenodd" clip-rule="evenodd" d="M23.3544 2.88805C23.3558 3.24046 23.0486 3.55028 22.696 3.55183C22.3439 3.55337 22.036 3.24702 22.0342 2.89348C22.0324 2.53886 22.3358 2.23225 22.6905 2.23038C23.0432 2.2285 23.3529 2.53531 23.3544 2.88805Z" fill="#CA282C"/>
</svg>
