<svg width="32" height="27" viewBox="0 0 32 27" fill="none" xmlns="http://www.w3.org/2000/svg">
<path fill-rule="evenodd" clip-rule="evenodd" d="M0 24.9881C0 17.3324 0 9.67666 0 2.02098C0.0179451 1.98047 0.041247 1.94143 0.0530319 1.89918C0.399547 0.656348 1.234 0.00188544 2.50683 0.00148368C11.2446 -0.00106078 19.9824 -0.000993761 28.7201 0.00509955C29.0058 0.00530043 29.3036 0.0395171 29.5749 0.124355C30.621 0.451787 31.2157 1.35212 31.2151 2.57119C31.212 9.84694 31.2073 17.1228 31.203 24.3986C31.202 26.0194 30.2206 26.999 28.5961 26.9991C22.8602 26.9995 17.1243 26.9992 11.3884 26.9992C8.40884 26.9992 5.42928 27.0014 2.44978 26.9979C1.4411 26.9967 0.700798 26.5375 0.241523 25.6419C0.136397 25.4367 0.0792801 25.2067 0 24.9881ZM1.33919 5.79737C1.33919 5.93115 1.33919 6.03038 1.33919 6.12975C1.33919 12.2446 1.33886 18.3596 1.33966 24.4744C1.33973 25.2506 1.75702 25.6597 2.54587 25.6598C11.2495 25.6602 19.9531 25.6602 28.6568 25.6598C29.4598 25.6597 29.8624 25.2516 29.8638 24.4414C29.8682 21.9868 29.8747 19.5321 29.876 17.0773C29.8781 13.4397 29.8768 9.80194 29.8759 6.1643C29.8759 6.04605 29.8651 5.92794 29.8589 5.79743C20.3461 5.79736 10.8657 5.79737 1.33919 5.79737ZM29.8634 4.42925C29.8634 3.67207 29.8928 2.93699 29.8456 2.20686C29.8312 1.98449 29.6543 1.6977 29.4649 1.58005C29.2187 1.42692 28.886 1.34898 28.5904 1.34857C19.944 1.33706 11.2975 1.33927 2.65099 1.33947C2.53944 1.33947 2.42762 1.33726 2.3164 1.34449C1.83482 1.3759 1.387 1.73955 1.36102 2.21818C1.32145 2.94857 1.35064 3.68265 1.35064 4.42925C10.8582 4.42925 20.3384 4.42925 29.8634 4.42925Z" fill="#393737"/>
<path fill-rule="evenodd" clip-rule="evenodd" d="M11.7337 8.67859C11.8309 8.61236 11.8901 8.5673 11.9536 8.52947C12.2766 8.33716 12.6374 8.39454 12.8528 8.67062C13.0777 8.95888 13.0426 9.33767 12.7445 9.59653C12.4838 9.82279 12.2117 10.0376 11.9308 10.238C11.7685 10.3538 11.7081 10.482 11.7103 10.6819C11.7205 11.6406 11.7158 12.5995 11.7145 13.5583C11.7136 14.1828 11.488 14.4159 10.8777 14.4163C9.13844 14.418 7.39916 14.4182 5.65996 14.4161C5.08531 14.4153 4.84713 14.1808 4.84579 13.601C4.84171 11.8618 4.84184 10.1226 4.84573 8.3833C4.84707 7.78829 5.08082 7.56371 5.68821 7.56291C7.39407 7.56063 9.09987 7.56143 10.8057 7.5623C11.5017 7.56264 11.6972 7.75515 11.7154 8.44885C11.717 8.51052 11.7249 8.57185 11.7337 8.67859ZM10.3665 11.4779C9.90773 11.8359 9.50149 12.1608 9.08641 12.4743C8.70574 12.7618 8.37449 12.7251 8.05891 12.3645C7.7136 11.97 7.37365 11.5708 7.03664 11.1693C6.74249 10.8188 6.75354 10.4166 7.05559 10.1607C7.36361 9.89986 7.7363 9.95109 8.05396 10.3049C8.276 10.5522 8.491 10.806 8.71659 11.0654C9.1227 10.7462 9.48308 10.4029 9.89896 10.1514C10.4024 9.84703 10.4541 9.43576 10.3369 8.92714C8.96354 8.92714 7.58872 8.92714 6.20635 8.92714C6.20635 10.3197 6.20635 11.6861 6.20635 13.0506C7.6056 13.0506 8.98168 13.0506 10.3665 13.0506C10.3665 12.5344 10.3665 12.0452 10.3665 11.4779Z" fill="#CA282C"/>
<path fill-rule="evenodd" clip-rule="evenodd" d="M11.7145 19.9343C11.7145 20.8037 11.7166 21.6732 11.7137 22.5427C11.7118 23.1058 11.4635 23.3561 10.8939 23.3572C9.15501 23.3607 7.41607 23.3605 5.67713 23.3574C5.09123 23.3563 4.8463 23.1103 4.84516 22.5205C4.84188 20.7926 4.84215 19.065 4.84496 17.3371C4.84596 16.7265 5.08775 16.49 5.69956 16.4896C7.42732 16.4885 9.15514 16.4882 10.8829 16.4898C11.4737 16.4904 11.7125 16.7315 11.714 17.3259C11.7161 18.1954 11.7145 19.0648 11.7145 19.9343ZM10.3478 22.0194C10.3478 20.5934 10.3478 19.2192 10.3478 17.8466C8.95446 17.8466 7.58882 17.8466 6.22412 17.8466C6.20812 17.8942 6.18863 17.9251 6.18857 17.956C6.18582 19.2368 6.18803 20.5176 6.18053 21.7983C6.17926 22.0159 6.30139 22.0214 6.45962 22.0205C7.06105 22.0175 7.66248 22.0194 8.26391 22.0194C8.95239 22.0195 9.64087 22.0194 10.3478 22.0194Z" fill="#393737"/>
<path fill-rule="evenodd" clip-rule="evenodd" d="M20.4265 10.1982C18.7643 10.1982 17.1021 10.2074 15.4403 10.1872C15.2196 10.1845 14.9478 10.0871 14.792 9.93744C14.4737 9.63137 14.6277 9.08096 15.0453 8.9224C15.1762 8.87272 15.3282 8.8618 15.4705 8.86167C18.7723 8.85846 22.0742 8.85919 25.3759 8.85919C25.4205 8.85919 25.4653 8.85799 25.5098 8.85973C25.9374 8.87613 26.2382 9.15288 26.239 9.53006C26.2398 9.90985 25.9427 10.1931 25.5125 10.1958C24.4754 10.2022 23.4381 10.1983 22.4009 10.1984C21.7428 10.1984 21.0846 10.1983 20.4265 10.1982Z" fill="#393737"/>
<path fill-rule="evenodd" clip-rule="evenodd" d="M20.4221 11.7855C22.1284 11.7859 23.8347 11.7829 25.5409 11.7881C25.9394 11.7893 26.2146 12.0489 26.2375 12.4107C26.2607 12.7743 25.9837 13.0752 25.5811 13.1178C25.4817 13.1283 25.3805 13.124 25.2802 13.124C24.4326 13.1244 23.5849 13.1243 22.7373 13.1243C20.3612 13.1243 17.9851 13.1242 15.6091 13.1241C15.5087 13.1241 15.4078 13.1284 15.3081 13.12C14.8936 13.0848 14.6237 12.8096 14.6305 12.4345C14.6373 12.0618 14.9212 11.7915 15.3353 11.7875C16.0604 11.7804 16.7855 11.7851 17.5106 11.7851C18.4811 11.7849 19.4516 11.785 20.4221 11.7855Z" fill="#393737"/>
<path fill-rule="evenodd" clip-rule="evenodd" d="M20.394 18.97C18.7877 18.97 17.1813 18.9702 15.575 18.9697C15.4523 18.9696 15.3284 18.975 15.2073 18.9599C14.8929 18.9205 14.6602 18.669 14.6351 18.3551C14.6108 18.049 14.7786 17.7781 15.0752 17.683C15.1993 17.6433 15.3374 17.633 15.4692 17.6328C18.7822 17.6303 22.0951 17.6308 25.4081 17.6309C25.4638 17.6309 25.5199 17.6285 25.5753 17.6331C25.9577 17.6649 26.2373 17.947 26.2388 18.3005C26.2403 18.6687 25.9514 18.9608 25.5469 18.9656C24.7106 18.9752 23.8742 18.9697 23.0377 18.97C22.1565 18.9703 21.2753 18.9701 20.394 18.97Z" fill="#393737"/>
<path fill-rule="evenodd" clip-rule="evenodd" d="M20.4179 21.8957C18.7892 21.8958 17.1606 21.8981 15.5319 21.8924C15.3568 21.8918 15.1706 21.8744 15.0092 21.8132C14.7312 21.7076 14.5875 21.397 14.6479 21.0966C14.7097 20.7892 14.9009 20.6067 15.2127 20.5654C15.3335 20.5494 15.4577 20.5568 15.5803 20.5568C17.8337 20.5564 20.087 20.5565 22.3404 20.5565C23.3663 20.5565 24.3921 20.5553 25.4179 20.5571C25.9345 20.558 26.2443 20.813 26.2389 21.2262C26.2337 21.6344 25.9167 21.8938 25.4038 21.8947C23.7418 21.8973 22.0798 21.8957 20.4179 21.8957Z" fill="#393737"/>
<path fill-rule="evenodd" clip-rule="evenodd" d="M28.5894 2.90393C28.5822 3.26056 28.2729 3.55973 27.9196 3.55203C27.5665 3.54433 27.2634 3.22955 27.2711 2.87842C27.2788 2.52447 27.5926 2.22268 27.9448 2.23052C28.3005 2.23842 28.5967 2.54777 28.5894 2.90393Z" fill="#CA282C"/>
<path fill-rule="evenodd" clip-rule="evenodd" d="M25.9732 2.90565C25.964 3.2602 25.6502 3.56098 25.2985 3.55208C24.9457 3.54324 24.6432 3.22706 24.652 2.87639C24.661 2.52318 24.9765 2.22159 25.3278 2.23056C25.6823 2.23981 25.9821 2.55338 25.9732 2.90565Z" fill="#CA282C"/>
<path fill-rule="evenodd" clip-rule="evenodd" d="M23.3544 2.88805C23.3558 3.24046 23.0486 3.55028 22.696 3.55183C22.3439 3.55337 22.036 3.24702 22.0342 2.89348C22.0324 2.53886 22.3358 2.23225 22.6905 2.23038C23.0432 2.2285 23.3529 2.53531 23.3544 2.88805Z" fill="#CA282C"/>
</svg>
