<svg width="33" height="38" viewBox="0 0 33 38" fill="none" xmlns="http://www.w3.org/2000/svg">
<path fill-rule="evenodd" clip-rule="evenodd" d="M0 21.5522C0.062632 13.9954 5.52485 7.52843 13.0582 6.26904C18.336 5.38677 22.9241 6.87675 26.8049 10.5223C27.2189 10.911 27.3788 11.3775 27.1986 11.9201C27.0356 12.411 26.6707 12.7021 26.1576 12.7866C25.6714 12.8664 25.2893 12.6593 24.9486 12.3292C23.2221 10.6557 21.1817 9.54322 18.8386 8.9652C11.6375 7.18909 4.21191 11.9344 2.8873 19.1626C1.59536 26.2103 6.00723 32.8412 13.0846 34.3053C17.5743 35.2339 21.5314 34.02 24.8906 30.9235C25.2578 30.585 25.6383 30.3266 26.1611 30.4138C26.6735 30.499 27.0376 30.7917 27.2002 31.2825C27.3737 31.8074 27.2266 32.2639 26.8326 32.6511C25.3609 34.0963 23.6695 35.2184 21.7535 35.9954C13.0687 39.5152 3.28021 34.8351 0.661728 25.9087C0.475777 25.2748 0.329112 24.6243 0.234191 23.9718C0.117486 23.1705 0.0746916 22.3592 0 21.5522Z" fill="#CA282C"/>
<path fill-rule="evenodd" clip-rule="evenodd" d="M24.9154 20.9156C26.7487 20.9156 28.542 20.9156 30.3782 20.9156C30.3782 20.7686 30.3782 20.6384 30.3782 20.5081C30.3782 19.4941 30.3722 18.4801 30.3806 17.4661C30.3869 16.7513 30.9053 16.2288 31.5744 16.2407C32.2308 16.2522 32.7235 16.768 32.726 17.4699C32.7319 18.9848 32.7312 20.4997 32.7263 22.0146C32.7238 22.7837 32.2336 23.2592 31.4433 23.2603C29.4097 23.2637 27.376 23.2616 25.3427 23.2616C25.2113 23.2616 25.0802 23.2616 24.9492 23.2616C24.9312 23.2923 24.9133 23.3229 24.8961 23.3536C25.3765 23.8169 25.8586 24.2788 26.3372 24.7441C26.6468 25.0454 26.8018 25.4077 26.7073 25.8389C26.6117 26.2768 26.3478 26.5802 25.9082 26.7188C25.4341 26.8686 25.0339 26.7321 24.6933 26.397C23.793 25.5098 22.8973 24.6184 21.9987 23.7295C21.7281 23.4619 21.4501 23.2017 21.1845 22.93C20.703 22.4382 20.6995 21.7478 21.189 21.2605C22.3455 20.1086 23.5063 18.9618 24.6719 17.8193C25.1913 17.3104 25.9141 17.3031 26.3861 17.7838C26.8475 18.254 26.8278 18.9514 26.3299 19.4572C25.8822 19.9117 25.426 20.3579 24.9745 20.8087C24.9576 20.8244 24.9509 20.8491 24.9154 20.9156Z" fill="#E89C1E"/>
<path fill-rule="evenodd" clip-rule="evenodd" d="M17.062 17.0668C17.062 18.5267 17.0546 19.9866 17.0663 21.4465C17.0698 21.9089 16.918 22.2802 16.5882 22.606C14.4626 24.7045 12.3444 26.8107 10.2211 28.9122C9.62083 29.5061 8.83851 29.5373 8.29699 29.0013C7.75665 28.4669 7.78622 27.6899 8.38647 27.093C10.3215 25.1688 12.2658 23.2535 14.1914 21.3197C14.3412 21.1693 14.4513 20.9067 14.4524 20.6954C14.4699 17.9919 14.4602 15.2884 14.4661 12.5849C14.468 11.5966 15.3791 10.9507 16.2513 11.319C16.7935 11.548 17.0616 11.9772 17.0616 12.5656C17.062 14.066 17.062 15.5664 17.062 17.0668Z" fill="#CA282C"/>
<path fill-rule="evenodd" clip-rule="evenodd" d="M15.7754 3.40668C14.6714 3.40668 13.5678 3.4086 12.4637 3.40629C11.6203 3.40436 11.0321 2.87993 11.0263 2.1307C11.0201 1.36527 11.6133 0.833131 12.4816 0.83236C14.6761 0.830818 16.8701 0.830432 19.0642 0.83236C19.9107 0.833131 20.4942 1.35448 20.5008 2.1068C20.5075 2.87338 19.915 3.40475 19.0463 3.40629C17.9559 3.40822 16.8655 3.40668 15.7754 3.40668Z" fill="#CA282C"/>
</svg>
