<svg width="36" height="38" viewBox="0 0 36 38" fill="none" xmlns="http://www.w3.org/2000/svg">
<path fill-rule="evenodd" clip-rule="evenodd" d="M0 21.5522C0.062632 13.9954 5.52485 7.52843 13.0582 6.26904C18.336 5.38677 22.9241 6.87675 26.8049 10.5223C27.2189 10.911 27.3788 11.3775 27.1986 11.9201C27.0356 12.411 26.6707 12.7021 26.1576 12.7866C25.6714 12.8664 25.2893 12.6593 24.9486 12.3292C23.2221 10.6557 21.1817 9.54322 18.8386 8.9652C11.6375 7.18909 4.21191 11.9344 2.8873 19.1626C1.59536 26.2103 6.00723 32.8412 13.0847 34.3053C17.5743 35.2339 21.5314 34.02 24.8906 30.9235C25.2578 30.585 25.6383 30.3266 26.1611 30.4138C26.6735 30.499 27.0376 30.7917 27.2002 31.2825C27.3737 31.8074 27.2266 32.2639 26.8326 32.6511C25.3609 34.0963 23.6695 35.2184 21.7535 35.9954C13.0687 39.5152 3.28021 34.8351 0.661728 25.9087C0.475777 25.2748 0.329112 24.6243 0.234191 23.9718C0.117486 23.1705 0.0746916 22.3592 0 21.5522Z" fill="#CA282C"/>
<path d="M26.1559 25.3503L21.7353 20.9433C21.4697 20.6785 21.4697 20.2492 21.7353 19.9844L22.6971 19.0256C22.9627 18.7608 23.3933 18.7608 23.6589 19.0256L26.6368 21.9943L33.0152 15.6356C33.2807 15.3708 33.7114 15.3708 33.977 15.6356L34.9387 16.5944C35.2043 16.8592 35.2043 17.2885 34.9387 17.5533L27.1177 25.3503C26.8521 25.6151 26.4215 25.6151 26.1559 25.3503Z" fill="#E89C1E"/>
<path fill-rule="evenodd" clip-rule="evenodd" d="M17.062 17.0668C17.062 18.5267 17.0546 19.9866 17.0663 21.4465C17.0698 21.9089 16.918 22.2802 16.5882 22.606C14.4626 24.7045 12.3444 26.8107 10.2211 28.9122C9.62083 29.5061 8.83851 29.5373 8.29699 29.0013C7.75665 28.4669 7.78622 27.6899 8.38647 27.093C10.3215 25.1688 12.2658 23.2535 14.1914 21.3197C14.3412 21.1693 14.4513 20.9067 14.4524 20.6954C14.4699 17.9919 14.4602 15.2884 14.4661 12.5849C14.468 11.5966 15.3791 10.9507 16.2513 11.319C16.7935 11.548 17.0616 11.9772 17.0616 12.5656C17.062 14.066 17.062 15.5664 17.062 17.0668Z" fill="#CA282C"/>
<path fill-rule="evenodd" clip-rule="evenodd" d="M15.7756 3.40668C14.6715 3.40668 13.5679 3.4086 12.4638 3.40629C11.6205 3.40436 11.0323 2.87993 11.0264 2.1307C11.0202 1.36527 11.6135 0.833131 12.4817 0.83236C14.6762 0.830818 16.8703 0.830432 19.0643 0.83236C19.9108 0.833131 20.4944 1.35448 20.501 2.1068C20.5076 2.87338 19.9151 3.40475 19.0464 3.40629C17.956 3.40822 16.8656 3.40668 15.7756 3.40668Z" fill="#CA282C"/>
</svg>
