<svg width="38" height="55" viewBox="0 0 38 55" fill="none" xmlns="http://www.w3.org/2000/svg">
<path fill-rule="evenodd" clip-rule="evenodd" d="M16.1493 54.5935C15.8891 54.4939 15.6208 54.4116 15.371 54.2911C14.1375 53.6967 13.4373 52.7282 13.3737 51.3518C13.3414 50.6314 13.3502 49.9094 13.3656 49.1874C13.3767 48.6326 13.1667 48.2264 12.7346 47.8682C11.3494 46.7205 9.91131 45.6215 8.64545 44.3537C7.67094 43.3764 6.85566 42.2199 6.09491 41.0607C4.58678 38.7656 3.21026 36.3823 1.69316 34.0931C0.520372 32.322 0.821047 30.768 1.62754 29.7319C2.59114 28.4935 4.49811 28.0121 6.16722 28.5653C7.03265 28.853 7.71669 29.3827 8.30132 30.0695C9.56842 31.556 10.8468 33.0354 12.1929 34.6011C12.2053 34.3193 12.2201 34.1374 12.2201 33.9553C12.2215 27.1593 12.2185 20.3652 12.2231 13.5692C12.2245 11.5501 13.59 9.88601 15.4718 9.57922C17.998 9.16752 20.1167 10.961 20.1499 13.5685C20.1735 15.3991 20.155 17.2305 20.155 19.0613C20.155 19.2536 20.155 19.4457 20.155 19.7097C21.106 19.3753 22.0349 19.2513 22.9711 19.5344C23.9 19.8153 24.6333 20.3738 25.1988 21.2117C26.152 20.6196 27.1685 20.3489 28.2764 20.5748C29.3674 20.7986 30.2131 21.3973 30.7844 22.2272C31.5268 22.019 32.2049 21.7099 32.903 21.6542C35.175 21.473 37.0864 23.1782 37.116 25.4997C37.1601 29.0011 37.1411 32.5069 37.0298 36.0067C36.9715 37.844 36.3765 39.5946 35.604 41.2721C34.7282 43.1736 33.842 45.0712 33.0195 46.9951C32.7777 47.5602 32.6752 48.2057 32.6192 48.8249C32.5522 49.5586 32.606 50.3027 32.6023 51.0408C32.5934 52.8164 31.6424 54.0461 29.9279 54.5084C29.8614 54.5261 29.8002 54.5643 29.7369 54.5935C25.2077 54.5935 20.6786 54.5935 16.1493 54.5935ZM14.4751 25.5613C14.4751 29.2051 14.4751 32.8501 14.4744 36.4953C14.4744 36.9163 14.4802 37.3404 14.464 37.7615C14.4462 38.2326 14.1897 38.5585 13.7608 38.7273C13.3287 38.8989 12.9256 38.808 12.5783 38.5012C12.4736 38.4074 12.3859 38.2958 12.2937 38.1886C10.3851 35.9668 8.48993 33.735 6.55569 31.5368C6.23425 31.1715 5.77558 30.8573 5.31797 30.6943C4.63992 30.4521 3.92157 30.5447 3.42332 31.1331C2.9117 31.7378 3.25372 32.3071 3.6077 32.8661C5.07395 35.1905 6.53422 37.518 7.9813 39.8542C9.12611 41.7046 10.551 43.2969 12.2724 44.6293C12.9559 45.1606 13.6288 45.7035 14.3025 46.2465C15.1843 46.9552 15.6162 47.8796 15.6178 49.0068C15.6178 49.6759 15.6141 50.3452 15.6185 51.0143C15.6245 51.8875 16.0416 52.3424 16.9013 52.3438C20.952 52.3527 25.0028 52.3527 29.0542 52.3438C29.8894 52.3408 30.3222 51.8962 30.3407 51.0613C30.3561 50.3922 30.3671 49.7229 30.34 49.0553C30.2926 47.9019 30.5604 46.8323 31.0499 45.7902C31.9183 43.9425 32.7475 42.079 33.5937 40.221C34.3022 38.6671 34.7864 37.0425 34.8167 35.3388C34.8758 32.0824 34.8559 28.8234 34.8404 25.5669C34.8388 25.2383 34.7034 24.87 34.5225 24.5881C34.1245 23.9704 33.3453 23.7414 32.6495 23.9631C31.961 24.1818 31.4774 24.8229 31.4663 25.6125C31.4478 26.9143 31.464 28.2173 31.4566 29.5203C31.4552 29.7462 31.4492 29.9854 31.3799 30.1968C31.2161 30.6927 30.6635 30.9979 30.1554 30.9099C29.5996 30.8144 29.2134 30.3609 29.2096 29.7417C29.1999 28.0352 29.2221 26.3269 29.192 24.6187C29.186 24.249 29.085 23.8424 28.9022 23.5241C28.5366 22.8856 27.7551 22.6259 27.0565 22.8138C26.348 23.0031 25.8216 23.6502 25.8142 24.4103C25.7994 26.048 25.8091 27.6857 25.8084 29.3235C25.8084 29.4818 25.8142 29.6404 25.8047 29.7975C25.7642 30.4432 25.2982 30.9111 24.6938 30.923C24.065 30.9333 23.5645 30.4607 23.5594 29.7812C23.5432 27.7562 23.5536 25.7326 23.5483 23.7074C23.5474 23.4623 23.5393 23.2129 23.4915 22.9721C23.3396 22.2151 22.6887 21.6661 21.9272 21.6302C21.173 21.5943 20.4418 22.0888 20.2317 22.8122C20.1601 23.0604 20.1571 23.3346 20.1571 23.596C20.1513 25.5682 20.1564 27.5405 20.152 29.5128C20.1506 30.4004 19.712 30.9289 19.0012 30.9214C18.2915 30.9127 17.8779 30.3903 17.8719 29.4893C17.8712 29.3484 17.8719 29.2076 17.8719 29.0666C17.8719 24.014 17.8719 18.9602 17.8712 13.907C17.8712 13.6965 17.8763 13.4837 17.8573 13.2739C17.785 12.4742 17.1245 11.8364 16.3238 11.7844C15.2337 11.7125 14.4781 12.4763 14.4765 13.6753C14.4723 17.6371 14.4751 21.599 14.4751 25.5613Z" fill="#CA282C"/>
<path fill-rule="evenodd" clip-rule="evenodd" d="M17.3168 0.495535C18.2797 0.706898 19.266 0.844013 20.2008 1.14188C26.3821 3.11191 30.1533 9.39185 28.9939 15.7278C28.9594 15.9178 28.9246 16.1101 28.8686 16.2941C28.6865 16.8869 28.1587 17.2039 27.5556 17.0937C26.9793 16.9895 26.5945 16.4665 26.6673 15.8495C26.7226 15.3785 26.8427 14.9139 26.8804 14.4428C27.3353 8.659 23.5019 3.80466 17.7424 2.85817C11.952 1.90643 6.17252 6.27517 5.52155 12.0774C5.14558 15.4247 6.08772 18.3318 8.37735 20.8088C8.93155 21.4089 8.96709 22.0655 8.47394 22.5366C7.9639 23.0238 7.28637 22.9621 6.7107 22.3284C3.36616 18.6458 2.31424 14.363 3.77152 9.64489C5.22457 4.94238 8.53076 2.02673 13.3298 0.816694C13.8724 0.67958 14.4304 0.60113 14.9818 0.495361C15.7602 0.495536 16.5387 0.495535 17.3168 0.495535Z" fill="#CA282C"/>
<path fill-rule="evenodd" clip-rule="evenodd" d="M24.6585 13.1046C24.6842 13.9661 24.383 14.4489 23.7533 14.5524C22.9887 14.678 22.4442 14.1738 22.41 13.3124C22.3414 11.5764 21.7038 10.0774 20.4019 8.91953C18.4743 7.20639 16.237 6.75512 13.8477 7.73454C11.471 8.70957 10.1701 10.563 9.97908 13.1384C9.91345 14.0161 9.62087 14.4715 9.0007 14.5559C8.21497 14.6624 7.64951 14.1076 7.69384 13.2265C7.83899 10.3033 9.09957 7.96481 11.5743 6.38213C14.3062 4.63502 17.1997 4.51909 20.0973 5.96921C22.8282 7.33545 24.5709 10.1338 24.6585 13.1046Z" fill="#CA282C"/>
</svg>
