<svg width="35" height="54" viewBox="0 0 35 54" fill="none" xmlns="http://www.w3.org/2000/svg">
<path fill-rule="evenodd" clip-rule="evenodd" d="M14.6726 53.1481C14.422 53.0517 14.1636 52.972 13.923 52.8554C12.7349 52.2803 12.0605 51.343 11.9993 50.0111C11.9681 49.314 11.9766 48.6153 11.9915 47.9167C12.0022 47.3798 11.7998 46.9867 11.3837 46.6402C10.0495 45.5295 8.66441 44.466 7.44518 43.2392C6.50657 42.2935 5.72132 41.1744 4.98859 40.0526C3.53602 37.8317 2.2102 35.5254 0.74899 33.3101C-0.380599 31.5963 -0.0910004 30.0925 0.685783 29.0898C1.61389 27.8915 3.45061 27.4256 5.05824 27.9609C5.89179 28.2393 6.55063 28.7519 7.11373 29.4166C8.33415 30.8551 9.56541 32.2866 10.8619 33.8017C10.8739 33.5291 10.8882 33.353 10.8882 33.1768C10.8895 26.6004 10.8867 20.0259 10.8911 13.4495C10.8924 11.4956 12.2076 9.88531 14.02 9.58842C16.4533 9.19003 18.4938 10.9256 18.5259 13.4488C18.5486 15.2203 18.5308 16.9924 18.5308 18.7641C18.5308 18.9501 18.5308 19.136 18.5308 19.3916C19.4467 19.0679 20.3414 18.9479 21.2431 19.222C22.1378 19.4938 22.8441 20.0342 23.3887 20.845C24.3068 20.2721 25.2859 20.0101 26.353 20.2287C27.4038 20.4453 28.2184 21.0246 28.7686 21.8277C29.4837 21.6262 30.1368 21.3271 30.8092 21.2732C32.9975 21.0978 34.8385 22.748 34.8669 24.9944C34.9095 28.3827 34.8912 31.7752 34.7839 35.1619C34.7278 36.9399 34.1547 38.6339 33.4107 40.2571C32.5671 42.0972 31.7136 43.9334 30.9214 45.7953C30.6885 46.3421 30.5897 46.9667 30.5358 47.5659C30.4713 48.2759 30.5231 48.9959 30.5196 49.7102C30.5109 51.4285 29.595 52.6184 27.9437 53.0657C27.8796 53.0828 27.8207 53.1198 27.7597 53.1481C23.3974 53.1481 19.0351 53.1481 14.6726 53.1481ZM13.0601 25.0541C13.0601 28.5801 13.0601 32.1073 13.0594 35.6347C13.0594 36.0421 13.065 36.4525 13.0494 36.86C13.0323 37.3159 12.7852 37.6312 12.3721 37.7946C11.9559 37.9607 11.5677 37.8727 11.2332 37.5758C11.1324 37.485 11.0478 37.3771 10.959 37.2733C9.12076 35.1233 7.29539 32.9636 5.43239 30.8364C5.1228 30.4829 4.68103 30.1789 4.24028 30.0212C3.5872 29.7868 2.89531 29.8765 2.41541 30.4458C1.92264 31.031 2.25206 31.5819 2.593 32.1228C4.00524 34.3721 5.41172 36.6243 6.80549 38.885C7.90814 40.6757 9.28055 42.2165 10.9385 43.5059C11.5968 44.02 12.245 44.5454 12.8938 45.0708C13.7432 45.7566 14.1592 46.6512 14.1607 47.742C14.1607 48.3894 14.1571 49.0371 14.1614 49.6846C14.1671 50.5295 14.5689 50.9697 15.3969 50.9711C19.2984 50.9797 23.2 50.9797 27.1022 50.9711C27.9066 50.9682 28.3234 50.538 28.3412 49.73C28.3561 49.0825 28.3666 48.4349 28.3405 47.7889C28.295 46.6727 28.5529 45.6377 29.0243 44.6292C29.8607 42.8413 30.6594 41.038 31.4745 39.24C32.1568 37.7363 32.6232 36.1643 32.6523 34.5156C32.7093 31.3644 32.6901 28.2107 32.6752 25.0595C32.6737 24.7415 32.5432 24.3851 32.369 24.1123C31.9857 23.5146 31.2352 23.2929 30.565 23.5075C29.9019 23.7191 29.4361 24.3395 29.4254 25.1036C29.4076 26.3633 29.4232 27.6242 29.4161 28.8851C29.4147 29.1037 29.409 29.3352 29.3422 29.5397C29.1844 30.0196 28.6522 30.315 28.1628 30.2298C27.6275 30.1374 27.2555 29.6985 27.2518 29.0993C27.2425 27.448 27.2638 25.795 27.2349 24.1419C27.2291 23.7842 27.1318 23.3907 26.9558 23.0827C26.6036 22.4648 25.8509 22.2135 25.178 22.3953C24.4956 22.5785 23.9886 23.2047 23.9815 23.9403C23.9672 25.525 23.9766 27.1098 23.9759 28.6947C23.9759 28.8479 23.9815 29.0014 23.9723 29.1534C23.9334 29.7782 23.4845 30.231 22.9024 30.2425C22.2968 30.2525 21.8147 29.7951 21.8097 29.1376C21.7941 27.178 21.8041 25.2198 21.7991 23.2601C21.7982 23.0228 21.7904 22.7815 21.7443 22.5485C21.5981 21.816 20.9711 21.2847 20.2377 21.25C19.5112 21.2153 18.807 21.6938 18.6047 22.3938C18.5357 22.6339 18.5328 22.8993 18.5328 23.1523C18.5272 25.0607 18.5321 26.9693 18.5279 28.8779C18.5265 29.7368 18.1041 30.2482 17.4195 30.241C16.7359 30.2325 16.3375 29.727 16.3318 28.8552C16.3311 28.7187 16.3318 28.5825 16.3318 28.4461C16.3318 23.5568 16.3318 18.6663 16.3311 13.7763C16.3311 13.5727 16.336 13.3668 16.3177 13.1638C16.248 12.3899 15.6119 11.7727 14.8407 11.7224C13.7908 11.6527 13.063 12.3919 13.0614 13.5522C13.0574 17.3859 13.0601 21.2198 13.0601 25.0541Z" fill="#6FAB55"/>
<path fill-rule="evenodd" clip-rule="evenodd" d="M15.7972 0.798264C16.7247 1.0028 17.6746 1.13548 18.5749 1.42372C24.5286 3.3301 28.1609 9.4071 27.0441 15.5383C27.0109 15.7222 26.9774 15.9082 26.9235 16.0863C26.7481 16.66 26.2397 16.9667 25.6588 16.8601C25.1037 16.7593 24.7331 16.2531 24.8033 15.6561C24.8565 15.2003 24.9722 14.7507 25.0085 14.2949C25.4467 8.69793 21.7544 4.00046 16.2071 3.08455C10.63 2.16357 5.06342 6.39114 4.43643 12.0059C4.07431 15.245 4.98174 18.0581 7.18703 20.4551C7.72082 21.0358 7.75505 21.6713 7.28007 22.1271C6.78881 22.5985 6.13624 22.5389 5.58178 21.9256C2.36044 18.362 1.34727 14.2176 2.75086 9.65196C4.1504 5.10141 7.3348 2.27998 11.957 1.10904C12.4796 0.976361 13.0171 0.900447 13.5482 0.798096C14.2979 0.798265 15.0477 0.798264 15.7972 0.798264Z" fill="#6FAB55"/>
<path fill-rule="evenodd" clip-rule="evenodd" d="M22.8684 12.9999C22.8932 13.8336 22.6031 14.3008 21.9966 14.4009C21.2601 14.5224 20.7357 14.0346 20.7028 13.201C20.6367 11.521 20.0226 10.0705 18.7686 8.95006C16.9121 7.29228 14.7571 6.85559 12.4559 7.80336C10.1668 8.74688 8.9138 10.5404 8.72977 13.0326C8.66656 13.8819 8.38476 14.3226 7.78743 14.4043C7.03064 14.5073 6.48601 13.9705 6.52871 13.1178C6.66851 10.2891 7.88266 8.02619 10.2662 6.49465C12.8975 4.804 15.6844 4.69182 18.4753 6.09508C21.1056 7.41717 22.7841 10.1251 22.8684 12.9999Z" fill="#6FAB55"/>
</svg>
