<svg width="281" height="282" viewBox="0 0 281 282" fill="none" xmlns="http://www.w3.org/2000/svg">
<path d="M276.06 122.186C268.466 72.4787 237.33 11.4093 175.817 5.01836C175.817 5.01836 129.113 -0.662474 83.074 7.94735C55.7496 13.0572 31.7901 28.2683 16.6295 50.1304C1.4688 71.9925 -3.59542 98.6503 2.55058 124.065C6.5423 140.573 9.23978 157.657 8.49948 174.619C7.21113 204.14 7.95231 231.696 36.6019 249.301C62.1826 265.021 94.3764 278.886 125.09 281.314C145.962 282.964 169.369 280.294 189.487 274.86C292.008 247.165 283.655 171.894 276.06 122.186Z" fill="#F4F7FA"/>
<path d="M169.617 269.271C168.066 268.73 165.169 266.184 164.688 265.209C161.482 258.722 154.693 246.966 156.704 239.586C157.048 238.326 163.001 238.34 164.046 237.337C167.844 236.425 169.218 236.345 172.402 233.704C181.804 225.909 168.548 204.772 189.57 202.744C204.969 201.258 216.125 208.802 219.288 186.047C222.451 163.292 248.832 126.163 269.224 146.789C280.927 158.626 263.118 174.797 267.153 190.335C270.987 205.101 263.005 214.915 247.116 219.951C231.227 224.986 237.516 232.75 238.972 246.322C240.72 262.625 216.676 260.391 205.664 258.413C196.796 256.82 173.141 258.747 169.617 269.271Z" fill="url(#paint0_linear_1_2064)"/>
<mask id="mask0_1_2064" style="mask-type:luminance" maskUnits="userSpaceOnUse" x="153" y="140" width="121" height="133">
<path d="M153.5 236.896C154.703 248.124 155.464 259.599 156.614 270.913C162.792 272.744 170.104 274.748 173.12 267.313C177.313 256.976 196.835 256.759 205.687 258.397C216.644 260.425 240.733 262.609 238.974 246.319C237.509 232.758 231.23 224.983 247.118 219.95C263.005 214.917 270.984 205.101 267.153 190.334C263.122 174.794 280.925 158.633 269.224 146.788C248.837 126.15 222.441 163.314 219.294 186.038C216.147 208.763 204.919 201.344 189.585 202.721C168.651 204.601 181.579 226.281 172.503 233.513C165.388 239.182 161.181 236.988 153.5 236.896Z" fill="white"/>
</mask>
<g mask="url(#mask0_1_2064)">
<path d="M160.759 253.079L160.676 252.749C186.898 246.16 210.395 231.717 228.626 210.98C245.972 191.249 258.322 166.237 264.34 138.649L264.672 138.721C258.642 166.366 246.266 191.43 228.882 211.205C210.605 231.994 187.049 246.474 160.759 253.079Z" fill="#FCFDFE"/>
<path d="M240.478 253.01C227.737 245.642 204.872 240.705 189.51 242.006L189.481 241.667C204.903 240.362 227.857 245.318 240.648 252.716L240.478 253.01Z" fill="#FCFDFE"/>
<path d="M170.973 250.388L170.802 250.094C177.73 246.063 182.354 238.685 184.545 228.165C186.151 220.452 186.437 211.26 185.394 200.844L185.733 200.81C186.779 211.26 186.492 220.487 184.878 228.234C182.666 238.853 177.988 246.307 170.973 250.388Z" fill="#FCFDFE"/>
<path d="M231.241 208.301L231.055 208.016C243.719 199.749 259.618 200.168 270.726 201.977L270.671 202.313C259.623 200.515 243.814 200.093 231.241 208.301Z" fill="#FCFDFE"/>
<path d="M250.345 179.427L250.017 179.333C252.036 172.303 253.933 157.559 243.948 137.806L244.252 137.653C254.289 157.509 252.377 172.349 250.345 179.427Z" fill="#FCFDFE"/>
</g>
<mask id="mask1_1_2064" style="mask-type:luminance" maskUnits="userSpaceOnUse" x="164" y="90" width="82" height="187">
<path d="M189.614 276.007C181.251 274.777 172.897 273.355 164.558 271.742C164.422 271.864 161.681 253.686 170.315 244.153C187.39 225.685 175.889 209.11 172.608 199.289C167.358 185.439 170.049 168.606 185.303 171.759C200.164 174.474 202.418 143.88 199.853 120.311C197.664 108.84 208.487 94.9211 219.288 91.7402C230.315 88.2161 241.318 95.4295 244.69 118.295C249.795 144.77 230.474 160.735 223.32 174.009C216.28 187.039 232.656 197.581 219.475 209.127C208.388 219.385 194.415 226.76 199.526 239.646C204.778 252.386 203.521 262.801 189.614 276.007Z" fill="white"/>
</mask>
<g mask="url(#mask1_1_2064)">
<path d="M189.614 276.007C181.251 274.777 172.897 273.355 164.558 271.742C164.422 271.864 161.681 253.686 170.315 244.153C187.39 225.685 175.889 209.11 172.608 199.289C167.411 185.449 170.145 170.463 184.23 170.242C199.852 169.69 202.685 143.833 199.853 120.311C197.664 108.84 208.487 94.9211 219.289 91.7402C230.315 88.2161 241.318 95.4295 244.691 118.295C249.795 144.77 230.474 160.735 223.32 174.009C216.28 187.039 232.657 197.581 219.475 209.127C208.388 219.385 194.415 226.76 199.527 239.646C204.778 252.386 203.521 262.801 189.614 276.007Z" fill="url(#paint1_linear_1_2064)"/>
</g>
<mask id="mask2_1_2064" style="mask-type:luminance" maskUnits="userSpaceOnUse" x="164" y="90" width="82" height="187">
<path d="M189.614 276.007C181.251 274.777 172.897 273.355 164.558 271.742C164.422 271.864 161.681 253.686 170.315 244.153C187.39 225.685 175.889 209.11 172.608 199.289C167.358 185.439 170.049 168.606 185.303 171.759C200.164 174.474 202.418 143.88 199.853 120.311C197.664 108.84 208.487 94.9211 219.288 91.7402C230.315 88.2161 241.318 95.4295 244.69 118.295C249.795 144.77 230.474 160.735 223.32 174.009C216.28 187.039 232.656 197.581 219.475 209.127C208.388 219.385 194.415 226.76 199.526 239.646C204.778 252.386 203.521 262.801 189.614 276.007Z" fill="white"/>
</mask>
<g mask="url(#mask2_1_2064)">
<path d="M178.43 277.086L178.09 277.081C178.088 276.92 186.08 238.674 199.859 201.457C201.762 195.43 203.829 189.352 205.829 183.474C211.183 167.734 216.719 151.457 219.348 135.252C222.287 117.138 221.239 100.823 216.147 85.3752L216.47 85.2688C221.58 100.769 222.632 117.137 219.684 135.306C217.05 151.54 211.51 167.83 206.151 183.583C204.153 189.46 202.086 195.536 200.181 201.567C186.293 239.079 178.451 276.864 178.43 277.086Z" fill="#FCFDFE"/>
<path d="M215.829 153.055L215.576 152.827C224.898 142.469 236.147 127.749 242.19 119.841C247.056 113.472 247.083 113.485 247.283 113.514L247.23 113.85L247.256 113.682L247.326 113.834C247.08 114.003 245.041 116.671 242.461 120.047C236.414 127.959 225.161 142.686 215.829 153.055Z" fill="#FCFDFE"/>
<path d="M218.647 138.847C216.718 126.975 211.829 119.167 208.068 114.707C203.915 109.781 200.087 107.633 199.696 107.585C199.697 107.585 199.734 107.589 199.777 107.561L199.587 107.278C199.673 107.221 199.773 107.235 200 107.334C201.032 107.782 204.89 110.195 208.936 115.225C214.033 121.56 217.507 129.709 218.983 138.793L218.647 138.847Z" fill="#FCFDFE"/>
<path d="M191.998 225.805L191.661 225.764C192.975 214.719 190.402 202.838 184.01 190.452C180.677 183.992 176.426 177.663 171.376 171.642C171.01 171.206 170.881 171.051 170.84 170.981L171.135 170.81C171.164 170.861 171.373 171.109 171.637 171.423C176.703 177.464 180.968 183.813 184.313 190.295C190.736 202.743 193.322 214.69 191.998 225.805Z" fill="#FCFDFE"/>
<path d="M195.767 214.176L195.478 213.997C205.319 198.097 225.881 196.726 226.796 196.726C226.813 196.726 226.823 196.726 226.826 196.727L226.953 196.886L226.837 197.054L226.783 196.895L226.768 197.061C226.767 197.061 226.766 197.061 226.765 197.061C226.428 197.061 205.636 198.232 195.767 214.176Z" fill="#FCFDFE"/>
<path d="M179.827 270.848L179.486 270.836C179.663 266.028 177.944 257.831 168.751 246.088C168.252 245.45 168.252 245.45 168.265 245.354L168.602 245.403L168.434 245.379L168.59 245.315C168.616 245.363 168.803 245.602 169.019 245.878C178.275 257.702 180.005 265.983 179.827 270.848Z" fill="#FCFDFE"/>
<path d="M181.95 261.79L181.623 261.695C182.683 258.038 186.855 250.871 202.886 243.969C203.108 243.873 203.25 243.812 203.301 243.786L203.457 244.089C203.403 244.116 203.254 244.181 203.02 244.282C187.118 251.128 182.993 258.19 181.95 261.79Z" fill="#FCFDFE"/>
</g>
<path d="M216.47 260.987L179.584 262.133C169.397 261.544 157.68 261.728 145.184 262.09C132.651 262.452 120.834 263.005 110.517 264.194L72.6758 265.312V272.996H72.6804C72.6797 272.996 72.6758 273.003 72.6758 273.018C72.6758 277.927 105.356 280.884 145.322 279.645C184.909 278.417 216.665 273.267 216.59 268.445C216.59 268.43 216.584 268.151 216.583 268.151L216.47 260.987Z" fill="url(#paint2_linear_1_2064)"/>
<path d="M216.473 261.078C216.548 265.893 184.816 270.756 145.261 271.947C105.329 273.148 72.6758 270.155 72.6758 265.255C72.6758 260.36 105.266 255.484 145.123 254.368C184.604 253.262 216.398 256.269 216.473 261.078Z" fill="url(#paint3_linear_1_2064)"/>
<path opacity="0.5" d="M169.995 147.66L151.711 162.041L170.37 175.926C191.2 191.4 203.586 215.905 203.963 242.312L204.221 260.407C204.226 260.745 203.924 261.034 203.412 261.374L147.065 260.049L143.269 260.157L86.0581 264.782C85.5265 264.468 85.3547 264.189 85.3542 263.845L85.329 245.485C85.2921 218.693 97.5812 193.326 118.524 176.893L136.995 162.368L118.347 148.45C97.3817 132.884 85.1405 108.404 85.1047 82.4032L85.0791 63.7538L141.875 66.163L145.62 66.1425L201.406 63.1523L201.668 81.5426C202.035 107.18 190.354 131.639 169.995 147.66Z" fill="#D8DEE8"/>
<path d="M204.149 260.402C204.154 260.741 203.889 261.079 203.377 261.42C198.819 264.424 174.562 267.336 145.102 268.21C115.434 269.09 90.6515 267.603 85.9221 264.831C85.3905 264.516 85.1127 264.188 85.1123 263.845C85.1078 260.455 112.028 256.951 145.006 256.021C177.726 255.098 204.101 257.061 204.149 260.402Z" fill="#BFC8D6"/>
<path d="M146.097 205.882L143.056 205.95L142.678 156.708L145.703 156.658L146.097 205.882Z" fill="url(#paint4_linear_1_2064)"/>
<path d="M144.127 127.736L109.071 128.187L110.896 131.221C110.896 131.221 123.923 149.865 144.38 159.876C164.576 149.236 177.145 130.354 177.145 130.354L178.892 127.289L144.127 127.736Z" fill="url(#paint5_linear_1_2064)"/>
<path d="M178.886 126.708C178.907 128.543 163.391 130.235 144.149 130.489C124.819 130.744 109.077 129.451 109.069 127.6C109.062 125.751 124.781 124.057 144.097 123.817C163.324 123.579 178.864 124.873 178.886 126.708Z" fill="url(#paint6_linear_1_2064)"/>
<path d="M144.492 201.936C144.479 201.932 144.492 201.927 144.492 201.927C144.492 201.927 144.506 201.932 144.492 201.936Z" fill="url(#paint7_linear_1_2064)"/>
<path d="M193.714 260.68C176.383 264.554 149.363 265.745 145.431 265.861C145.431 265.861 145.173 265.868 144.994 265.874C144.814 265.879 144.556 265.887 144.556 265.887C142.466 265.948 133.817 266.091 123.504 265.78C114.409 265.498 104.039 264.874 95.7382 263.523C95.7205 263.524 95.7799 263.46 95.7799 263.456C95.7799 263.456 95.7799 263.451 95.7799 263.442C95.7799 263.331 95.7799 262.546 95.7799 261.288C95.7799 261.284 95.7799 261.284 95.7799 261.279C96.1525 254.869 97.0988 236.341 100.33 232.341C104.177 227.581 143.221 202.818 144.518 201.949C145.827 202.761 184.86 225.59 188.702 230.111C189.735 231.326 190.565 234.044 191.237 237.347C192.001 241.098 192.551 245.648 192.937 249.731C193.503 255.706 193.714 260.68 193.714 260.68Z" fill="url(#paint8_linear_1_2064)"/>
<path d="M110.856 91.1351C110.443 79.5753 111.444 71.1823 111.444 71.1823C111.444 71.1823 108.301 63.8851 97.2418 67.2516C94.3502 75.7868 93.2169 83.9851 93.3712 91.2828L110.856 91.1351Z" fill="white"/>
<path d="M111.124 96.2812L93.6807 96.4393C97.5843 134.834 135.075 156.828 135.075 156.828L143.969 156.683C119.409 147.097 112.621 117.779 111.124 96.2812Z" fill="white"/>
<path d="M112.242 257.932L96.4704 258.378C94.4279 251.31 93.6007 244.218 93.705 237.998L111.473 237.538C111.158 249.075 112.195 257.488 112.242 257.932Z" fill="white"/>
<path d="M111.7 232.222L93.9956 232.669C97.7421 192.874 135.16 169.426 135.16 169.426L144.067 169.267C119.577 180.177 113.026 210.13 111.7 232.222Z" fill="white"/>
<path d="M213.383 63.1833L177.278 63.4007C167.309 62.6058 155.843 62.4958 143.615 62.5578C131.35 62.6199 119.788 62.8701 109.694 63.774L72.6758 63.9736V71.0252H72.6803C72.6797 71.0252 72.6758 71.1532 72.6758 71.1675C72.6758 75.8635 104.644 79.4979 143.746 79.2218C182.486 78.9482 213.571 74.9606 213.498 70.3433C213.498 70.3292 213.494 70.2799 213.494 70.2799L213.383 63.1833Z" fill="url(#paint9_linear_1_2064)"/>
<path d="M213.384 63.1323C213.456 67.742 182.397 71.6748 143.688 71.914C104.618 72.1555 72.6758 68.5488 72.6758 63.8606C72.6758 59.1771 104.558 55.251 143.556 55.0885C182.193 54.9273 213.313 58.5274 213.384 63.1323Z" fill="url(#paint10_linear_1_2064)"/>
<path opacity="0.3" d="M193.714 260.68C176.383 264.554 149.363 265.745 145.431 265.861C145.431 265.861 145.173 265.869 144.994 265.874C144.814 265.879 144.556 265.887 144.556 265.887C142.466 265.948 133.817 266.091 123.504 265.78C114.409 265.498 104.039 264.874 95.7382 263.523C95.7205 263.524 95.7799 263.46 95.7799 263.456C95.7799 263.456 95.7799 263.451 95.7799 263.442C95.7799 263.331 95.718 262.547 95.7723 261.288C105.531 261.298 125.837 260.581 134.643 254.864C146.387 247.235 156.18 246.744 169.022 248.821C179.562 250.528 187.183 244.632 191.234 237.348C191.998 241.098 192.547 245.648 192.937 249.731C193.503 255.706 193.714 260.68 193.714 260.68Z" fill="url(#paint11_linear_1_2064)"/>
<path d="M180.197 21.8633C181.42 21.0701 180.305 18.763 180.239 13.8073C180.159 7.73445 181.772 6.60287 180.476 4.22028C178.892 1.30685 174.904 0.101284 172.262 0.0444196C171.68 0.0319443 171.543 -0.286224 166.662 0.977944C157.867 3.25571 155.665 0.814024 151.727 3.253C147.922 5.60949 149.588 8.19024 145.893 10.9538C139.904 15.4334 133.605 10.5903 129.325 14.3374C125.276 17.8816 125.182 26.9115 129.441 31.8393C134.269 37.4257 142.975 35.7473 148.81 34.6396C150.038 34.4066 156.238 33.1044 162.695 28.3391C166.266 25.7027 168.719 22.8875 170.279 20.8133C170.645 20.4011 171.216 19.9019 171.971 19.8215C172.876 19.7248 173.604 20.2788 173.954 20.5215C175.795 21.7961 178.995 22.6423 180.197 21.8633Z" fill="url(#paint12_linear_1_2064)"/>
<path d="M171.923 15.6986C173.496 14.2658 182.467 17.3683 186.187 21.0339C190.557 25.3403 190.221 28.8319 194.035 34.1817C195.93 36.8414 199.181 40.4218 204.94 43.5584C204.532 44.5775 204.125 45.597 203.717 46.616C200.932 46.7834 195.466 46.6849 190.365 43.3547C186.822 41.0412 184.999 37.9758 181.498 31.9394C177.984 25.8811 169.957 17.4901 171.923 15.6986Z" fill="url(#paint13_linear_1_2064)"/>
<path d="M209.634 99.3932L207.845 95.5933C207.591 95.0534 207.195 94.5929 206.699 94.261L205.813 93.6683C205.813 93.6683 203.696 93.6121 203.367 94.9428C203.296 96.6325 206.58 100.408 208.657 101.908C209.002 102.156 209.493 102.488 209.792 102.318C210.298 102.028 209.943 100.474 209.634 99.3932Z" fill="url(#paint14_linear_1_2064)"/>
<path d="M206.273 91.6023C205.991 93.2322 206.347 94.082 206.731 94.558C207.002 94.893 209.195 98.5096 208.294 99.0936C207.887 99.3571 205.101 95.8968 204.831 95.3667C204.586 94.8865 204.427 94.9998 204.413 93.6917C204.403 92.8304 204.228 92.1372 204.09 91.7035C204.818 91.6696 205.545 91.6361 206.273 91.6023Z" fill="url(#paint15_linear_1_2064)"/>
<path d="M209.44 78.6848C209.44 78.6848 211.42 81.0469 211.098 83.6364C210.776 86.2258 207.309 82.44 206.825 81.1606C206.342 79.8811 205.777 78.0583 205.777 78.0583C205.777 78.0583 208.208 76.5459 209.44 78.6848Z" fill="url(#paint16_linear_1_2064)"/>
<path d="M208.685 74.9889C208.685 74.9889 208.148 77.7408 209.172 79.1932C209.682 79.9166 210.37 80.5302 210.168 81.119C210.032 81.5136 209.517 81.7971 209.081 81.7524C208.246 81.6667 207.783 80.3864 207.457 79.4834C206.974 78.1497 206.706 75.2959 206.706 75.2959L208.685 74.9889Z" fill="url(#paint17_linear_1_2064)"/>
<path d="M207.107 77.3086C207.716 77.087 208.325 76.8651 208.934 76.6434C209.883 74.474 211.043 70.911 210.655 66.5802C209.66 55.4429 199.359 49.541 198.215 48.9094C195.408 50.3176 192.565 52.3041 192.462 54.8083C192.333 57.952 196.616 59.6137 200.642 64.2107C203.058 66.9698 205.64 71.0812 207.107 77.3086Z" fill="url(#paint18_linear_1_2064)"/>
<path d="M206.451 92.8761C208.463 85.0184 207.949 78.6063 207.369 74.9124C206.492 69.3293 204.708 57.9729 197.126 53.7381C195.47 52.8134 193.103 51.9853 190.218 49.4143C187.809 47.2673 186.278 45.0093 185.354 43.4185C175.214 40.4438 165.861 41.6493 161.733 47.0877C161.257 47.7161 160.063 49.0791 159.832 51.089C159.31 55.6236 163.766 61.0831 168.766 62.2232C175.12 63.6721 178.807 57.1476 184.436 59.3184C186.011 59.9256 187.346 61.4304 190.017 64.4399C193.414 68.2684 195.323 71.8012 196.046 73.2147C198.197 77.4242 199.828 80.5315 200.066 84.5586C200.122 85.4968 200.155 87.3922 201.254 89.4364C202.097 91.0056 203.24 92.0518 204.091 92.6982C204.878 92.7573 205.665 92.8168 206.451 92.8761Z" fill="url(#paint19_linear_1_2064)"/>
<path opacity="0.3" d="M159.832 51.089C160.063 49.0791 161.257 47.7161 161.733 47.0877C165.861 41.6493 175.213 40.4438 185.354 43.4185C186.278 45.0092 187.809 47.2673 190.218 49.4143C193.103 51.9853 195.47 52.8133 197.126 53.7381C201.756 56.324 204.221 61.5648 205.641 66.5257C203.535 63.2597 201.731 62.3916 200.336 62.376C198.339 62.3538 197.446 64.0615 195.062 63.8283C192.513 63.5793 191.93 61.4717 189.864 61.2295C189.245 61.1571 188.484 61.2524 187.57 61.739C186.351 60.4619 185.442 59.706 184.436 59.3185C178.807 57.1478 175.12 63.6723 168.766 62.2233C163.766 61.0831 159.31 55.6237 159.832 51.089Z" fill="url(#paint20_linear_1_2064)"/>
<path d="M201.197 57.2526C200.05 57.1916 198.282 57.1563 196.15 57.3669C186.032 58.3668 183.243 63.3716 174.881 64.5928C172.903 64.8817 164.095 66.1681 160.281 61.0766C157.542 57.4211 157.956 51.1225 160.952 48.6451C162.22 47.5967 163.475 47.6259 171.594 47.6992C174.652 47.727 177.709 47.7368 180.767 47.7758C193.71 47.9408 196.185 47.0444 198.54 49.1851C199.639 50.1838 201.245 52.3288 201.197 57.2526Z" fill="url(#paint21_linear_1_2064)"/>
<path d="M173.874 15.7258C173.874 15.7258 163.657 12.7464 159.158 17.8397C158.332 18.7748 157.679 20.0046 157.204 22.3782C154.782 34.474 163.942 41.7393 160.333 48.1205C158.9 50.6546 156.376 51.4182 154.582 55.9721C154.278 56.7431 153.18 59.5319 154.188 60.4106C155.075 61.1844 156.535 59.5505 159.128 59.8661C161.874 60.2002 162.516 62.3097 164.364 62.0027C165.568 61.8023 166.088 60.7738 167.862 58.2098C170.431 54.4975 171.716 52.6414 172.637 51.9906C176.27 49.4229 179.079 52.7715 183.222 50.2288C184.722 49.3083 190.28 42.1525 188.645 44.118C184.753 39.2627 183.848 35.257 183.755 32.4718C183.653 29.4183 184.534 28.0306 183.755 24.4209C183.755 24.4209 183.587 22.5227 180.455 19.0644C180.005 18.568 178.769 15.9216 173.874 15.7258Z" fill="url(#paint22_linear_1_2064)"/>
<path d="M169.74 9.88745C169.86 10.4486 170.471 13.4598 169.239 14.2345C168.972 14.4025 168.459 14.4987 167.433 14.691C166.761 14.817 166.197 14.8941 165.799 14.9417C165.857 15.4466 166.027 16.2684 166.61 17.0161C168.243 19.1118 171.518 18.5695 171.985 18.4843C173.633 18.1843 175.254 17.6754 175.646 17.3642C176.242 16.8906 176.71 16.5352 176.988 16.1741C176.35 15.8659 175.063 15.0534 174.199 14.7876C173.554 14.5889 172.948 14.4472 172.396 14.3454C172.306 13.7637 172.215 13.1821 172.124 12.6004C171.329 11.6962 170.535 10.7919 169.74 9.88745Z" fill="url(#paint23_linear_1_2064)"/>
<path d="M169.682 11.3882C169.682 11.3882 169.904 13.5948 172.049 13.9836C173.97 14.3319 175.416 9.69064 174.433 8.4902C174.105 8.08973 173.296 7.7088 172.594 7.72891C172.1 7.74323 170.433 8.37802 170.201 10.0459C169.869 9.69625 169.455 9.59567 169.251 9.74209C168.992 9.92786 169.131 10.4681 169.162 10.5904C169.271 11.0145 169.548 11.2773 169.682 11.3882Z" fill="url(#paint24_linear_1_2064)"/>
<path opacity="0.3" d="M188.644 44.1179C188.176 43.5337 187.753 42.9626 187.368 42.4036C185.221 41.6844 183.364 41.4168 181.866 41.3441C178.487 41.1802 176.637 41.9752 174.337 40.5911C171.726 39.02 172.188 36.8391 169.669 35.6218C167.017 34.3407 165.142 35.7885 162.591 35.3207C161.051 35.0383 159.174 34.008 157.259 31.0027C158.726 38.2384 162.991 43.4205 160.333 48.1203C158.899 50.6544 156.375 51.418 154.581 55.9719C154.278 56.7429 153.179 59.5317 154.187 60.4104C155.075 61.1842 156.535 59.5503 159.128 59.8659C161.874 60.2 162.516 62.3095 164.363 62.0025C165.568 61.8021 166.087 60.7736 167.862 58.2096C170.431 54.4973 171.716 52.6412 172.636 51.9904C176.27 49.4227 179.078 52.7713 183.221 50.2286C184.722 49.3081 190.279 42.1523 188.644 44.1179Z" fill="url(#paint25_linear_1_2064)"/>
<path d="M191.723 45.3594L168.607 46.4843C168.289 46.4999 167.999 46.6703 167.83 46.9407L167.191 47.9673C166.872 48.4782 167.255 49.1374 167.856 49.1145L192.342 48.1816L191.723 45.3594Z" fill="url(#paint26_linear_1_2064)"/>
<path d="M215.765 32.4869L191.884 32.9497C191.177 32.9633 190.53 33.3482 190.181 33.9627L181.911 48.5126L207.133 47.5078C207.825 47.4802 208.457 47.1054 208.813 46.5109L216.475 33.7105C216.801 33.1657 216.4 32.4746 215.765 32.4869Z" fill="url(#paint27_linear_1_2064)"/>
<path d="M190.181 33.9627C190.53 33.3482 191.177 32.9633 191.884 32.9496L192.407 32.9395C192.485 33.7103 192.722 34.4155 193.193 34.9848C194.666 36.7623 197.112 35.6659 198.936 37.547C200.939 39.6133 199.089 42.0731 200.88 43.9963C202.765 46.0204 205.813 44.3723 209.317 45.6678L208.812 46.5107C208.457 47.1053 207.825 47.4801 207.133 47.5077L181.911 48.5126L190.181 33.9627Z" fill="url(#paint28_linear_1_2064)"/>
<path d="M170.491 44.5871C170.792 43.7925 171.093 42.9982 171.394 42.2035C168.068 41.2918 163.469 39.9448 158.752 38.2592C158.013 37.9951 157.136 37.6682 156.848 36.8908C156.042 34.7101 161.169 32.4503 163.163 27.6887C165.007 23.2848 163.992 17.1734 161.852 16.4514C157.4 14.9491 141.611 34.6021 147.25 42.8869C150.438 47.57 160.265 48.3158 170.491 44.5871Z" fill="url(#paint29_linear_1_2064)"/>
<path d="M171.393 42.2035C173.481 41.0945 175.98 42.2312 176.141 42.3073C176.6 42.5239 177.267 42.9095 177.942 43.5986C178.018 43.7025 178.923 44.9573 178.593 45.3594C178.329 45.6816 177.305 45.4146 176.074 44.6491C175.558 44.5767 174.79 44.5103 173.87 44.5951C172.181 44.751 171.406 45.2847 170.793 44.824C170.344 44.4867 170.191 43.7735 170.353 43.2433C170.526 42.6738 171.04 42.3913 171.393 42.2035Z" fill="url(#paint30_linear_1_2064)"/>
<path d="M77.147 100.896V129.079C77.147 133.155 73.7391 136.449 69.5135 136.431L53.8207 136.367L51.7484 136.36L44.4258 145.333C43.8705 145.765 42.5402 145.784 42.093 145.244L41.0066 143.809L35.3247 136.293L34.7997 136.289L20.4497 136.233C18.9069 136.226 17.586 135.667 16.4794 134.731C15.0149 133.502 14.1709 131.62 14.1709 129.515V103.951C14.1709 100.255 16.9564 97.0874 20.5413 96.8751L23.5848 96.6924L69.594 93.9683C70.7492 93.9014 71.7792 94.0839 72.7669 94.4678C75.3865 95.4889 77.147 97.9334 77.147 100.896Z" fill="url(#paint31_linear_1_2064)"/>
<path d="M76.0297 100.169V128.274C76.0297 132.339 72.5102 135.626 68.3105 135.615L53.4692 135.585L50.5481 135.578L43.2615 144.133C42.7324 144.752 41.7924 144.748 41.2782 144.126L41.0114 143.809L34.802 136.289L34.183 135.54L19.3852 135.507C18.3007 135.503 17.3336 135.223 16.4394 134.732C14.3898 133.614 13.0537 131.382 13.0537 128.814V103.318C13.0537 99.6289 15.8653 96.4653 19.4353 96.2491L22.9278 96.0367L68.2505 93.2754C69.961 93.1712 71.6147 93.622 72.893 94.468C74.7523 95.694 76.0297 97.7621 76.0297 100.169Z" fill="url(#paint32_linear_1_2064)"/>
<path d="M40.6912 120.535L43.2334 120.475C43.9419 120.458 44.5281 119.852 44.5652 119.139L45.4958 101.229C45.5151 100.86 45.3823 100.556 45.129 100.306C44.8759 100.057 44.525 99.9762 44.1585 100.002L39.7804 100.307C39.4216 100.332 39.0792 100.451 38.8328 100.731C38.5868 101.011 38.4583 101.347 38.4769 101.708L39.3823 119.291C39.4186 119.994 39.9929 120.552 40.6912 120.535Z" fill="white"/>
<path d="M44.6146 124.91C43.9799 124.304 43.0867 124.011 41.9383 124.029C40.7545 124.048 39.857 124.36 39.2427 124.964C38.6298 125.566 38.3242 126.447 38.3242 127.606C38.3242 128.724 38.6367 129.589 39.2631 130.202C39.8912 130.817 40.7819 131.125 41.9382 131.125C43.0728 131.125 43.9624 130.807 44.6041 130.17C45.2475 129.531 45.5699 128.656 45.5699 127.548C45.5699 126.398 45.2509 125.518 44.6146 124.91Z" fill="white"/>
<path opacity="0.3" d="M53.8499 136.368L51.7631 136.36L44.4333 145.333C43.878 145.766 42.5441 145.784 42.0968 145.244L41.0087 143.809L34.8005 136.289L20.4502 136.233C18.9074 136.226 17.5454 135.667 16.4388 134.732C14.3892 133.614 13.0532 131.382 13.0532 128.814V103.318C13.0532 99.6289 15.8648 96.4653 19.4348 96.2491L22.9273 96.0367C23.1471 96.2454 23.3468 96.4614 23.552 96.6925C25.8921 99.2675 27.5441 103.065 27.2422 108.662C26.3516 125.307 37.4121 128.002 47.4064 131.124C50.5031 132.093 52.3534 133.755 53.434 135.585C53.587 135.842 53.7233 136.103 53.8499 136.368Z" fill="url(#paint33_linear_1_2064)"/>
<path d="M38.5127 160.769L39.9449 158.718L42.8691 157.513C42.8691 157.513 41.6968 155.381 38.995 156.972C38.1424 157.876 36.9592 159.982 35.6686 160.977C34.3778 161.973 38.5127 160.769 38.5127 160.769Z" fill="url(#paint34_linear_1_2064)"/>
<path d="M27.9366 162.287C30.9259 159.014 34.4958 157.372 36.392 156.638C36.972 156.878 37.8645 157.348 38.4241 158.255C40.8614 162.206 33.1753 168.288 35.0375 172.179C36.2794 174.773 40.1856 173.088 45.2235 177.395C47.6411 179.461 47.8621 180.807 47.5661 181.809C47.0972 183.396 45.2314 184.463 44.6638 184.788C39.7332 187.607 29.4987 186.837 25.1784 180.587C21.5623 175.356 23.035 167.653 27.9366 162.287Z" fill="url(#paint35_linear_1_2064)"/>
<path d="M31.7882 275.681C31.6826 275.099 29.8032 274.572 28.8727 275.352C28.4106 275.739 28.0925 276.523 28.3599 276.878C28.4571 277.007 28.0588 277.233 28.4404 277.238C29.7064 277.253 31.8933 276.259 31.7882 275.681Z" fill="url(#paint36_linear_1_2064)"/>
<path d="M29.818 275.893L27.8853 275.62C28.7807 274.542 28.6149 271.108 28.6149 271.108L30.6704 271.567C30.6704 271.567 30.4361 272.509 30.0378 273.9C29.9013 274.375 29.8404 275.12 29.818 275.893Z" fill="url(#paint37_linear_1_2064)"/>
<path d="M29.9895 275.655C29.9895 275.655 27.6626 275.119 27.4109 275.58C27.1592 276.042 26.9638 277.278 28.4401 277.238C29.9164 277.198 30.1206 276.046 29.9895 275.655Z" fill="url(#paint38_linear_1_2064)"/>
<path d="M58.3075 277.863C58.1214 277.302 56.1869 277.043 55.3745 277.945C54.9713 278.393 54.766 279.214 55.0803 279.528C55.1947 279.642 54.832 279.922 55.2105 279.873C56.4661 279.711 58.4924 278.421 58.3075 277.863Z" fill="url(#paint39_linear_1_2064)"/>
<path d="M56.387 278.349H54.4351C55.1708 277.156 54.5261 273.78 54.5261 273.78L56.6255 273.946C56.6255 273.946 56.5255 274.912 56.3256 276.344C56.2572 276.834 56.3011 277.58 56.387 278.349Z" fill="url(#paint40_linear_1_2064)"/>
<path d="M61.4453 204.533C62.3495 207.519 63.6409 212.338 64.472 218.385C66.843 235.632 61.8036 236.182 62.7447 255.294C63.045 261.394 57.4596 275.461 56.9672 275.772C56.7289 275.795 56.4704 275.811 56.1948 275.802C55.709 275.788 55.0241 275.713 54.2275 275.474C53.3427 275.322 50.1527 266.682 50.8921 261.544C51.4154 257.908 51.2637 254.006 50.9603 246.202C50.9112 244.937 47.6758 221.6 47.6758 221.6C46.6916 230.238 45.5598 237.578 44.5786 243.268C41.4261 261.552 31.176 272.618 30.6413 272.795C30.5357 272.838 29.5739 273.187 28.7875 272.669C28.4376 272.438 28.3184 272.141 28.3184 272.141C28.0442 271.926 28.3993 253.887 31.5256 240.311C36.0637 220.606 34.0876 215.995 35.5254 207.193C36.7694 199.577 61.4453 204.533 61.4453 204.533Z" fill="url(#paint41_linear_1_2064)"/>
<path d="M62.6593 207.508C59.9369 208.911 52.9161 211.412 44.5535 210.17C40.7328 209.601 37.676 208.329 35.5267 207.196C37.6934 200.627 35.9914 197.11 35.1881 193.866C34.0463 189.246 34.0244 189.594 33.0822 185.925C31.5278 179.868 31.2716 173.676 32.3398 172.413C34.5671 169.773 38.171 169.1 40.9411 168.896C41.7573 168.835 42.4997 168.813 43.1162 168.796C44.6578 168.748 47.2281 168.449 49.881 168.622C52.408 168.796 55.0088 169.4 56.867 171.075C56.9322 171.132 56.1506 171.553 56.5371 172C56.8931 172.422 58.1176 173.885 59.2292 175.865C60.0367 177.302 60.7618 178.973 61.4955 181.466C62.7851 185.86 63.1585 189.602 63.2802 191.235C63.9793 200.401 63.2845 204.634 62.6593 207.508Z" fill="url(#paint42_linear_1_2064)"/>
<path d="M56.5235 278.089C56.5235 278.089 54.1444 277.884 53.9599 278.376C53.7753 278.868 53.7548 280.119 55.2109 279.873C56.6671 279.627 56.7081 278.458 56.5235 278.089Z" fill="url(#paint43_linear_1_2064)"/>
<path d="M45.0954 164.493C44.6685 164.237 44.3433 164.786 44.5444 165.266C44.7454 165.746 45.4212 166.047 45.8311 165.76C46.241 165.474 45.6699 164.836 45.0954 164.493Z" fill="url(#paint44_linear_1_2064)"/>
<path d="M50.3896 169.295C50.3896 170.125 48.236 170.798 45.5745 170.798C42.9173 170.798 40.7637 170.125 40.7637 169.295C40.7637 169.157 40.8245 169.022 40.9417 168.896C41.7579 168.835 42.5004 168.814 43.1169 168.796C44.6584 168.749 47.2287 168.449 49.8816 168.623C50.2072 168.826 50.3896 169.057 50.3896 169.295Z" fill="url(#paint45_linear_1_2064)"/>
<path d="M46.8676 168.653C46.5894 168.026 46.3111 167.4 46.0326 166.773C46.2762 166.533 47.87 165.341 47.8371 163.991C47.7925 162.158 46.3355 160.759 46.0496 160.478C44.8526 159.303 44.5978 159.171 44.1584 159.039L43.5557 158.882C43.5557 158.882 43.5226 158.879 43.4885 158.877C43.1276 158.861 42.0089 159.168 41.7991 159.285C41.1289 159.659 41.2624 162.815 42.749 166.88C42.7676 167.046 42.7877 167.214 42.8091 167.383C42.9426 168.432 43.1212 169.435 43.3326 170.389C43.3326 170.389 46.0765 170.506 46.8676 168.653Z" fill="url(#paint46_linear_1_2064)"/>
<path d="M45.359 158.253C45.7479 159.534 44.8877 160.085 44.6479 160.399C44.617 160.439 44.4479 160.684 44.3398 161.048C44.325 161.097 44.3158 161.153 44.3133 161.221C44.2807 162.114 45.8546 162.669 45.718 163.107C45.6189 163.424 44.6397 163.341 44.6056 163.599C44.5733 163.842 45.433 164.06 45.4004 164.349C45.3759 164.568 44.876 164.528 44.6854 164.91C44.5903 165.1 44.6673 165.203 44.6567 165.698C44.6507 165.978 44.6186 166.292 44.575 166.474C44.3634 167.362 43.1949 168.021 42.8616 167.794C42.7687 167.731 42.8047 167.643 42.6498 167.383C42.6498 167.383 42.5062 167.141 42.2322 166.896C41.8408 166.545 41.1207 166.429 40.3499 166.168C38.9224 165.685 38.3844 165.065 38.2145 164.852C38.1541 164.776 38.113 164.718 38.0834 164.675C37.4897 163.825 37.0627 162.44 37.2252 161.458C37.4974 159.812 39.3082 159.997 40.1857 158.18C40.6749 157.167 40.9695 156.106 42.1473 155.689C43.064 155.365 43.9094 155.693 44.4567 156.471C44.8181 156.985 45.1764 157.651 45.359 158.253Z" fill="#26264F"/>
<path d="M45.1656 162.947C44.7195 162.612 44.2926 163.187 44.4608 163.745C44.6288 164.304 45.3472 164.718 45.8376 164.447C46.3281 164.176 45.766 163.398 45.1656 162.947Z" fill="url(#paint47_linear_1_2064)"/>
<path d="M49.2625 156.309L47.2799 155.087C47.2799 155.087 45.4425 154.254 43.4295 155.578C41.4165 156.902 42.2788 157.861 42.2788 157.861L43.7597 157.192C43.7597 157.192 44.7136 156.754 46.1911 157.408C47.8953 157.903 49.0826 157.78 49.0826 157.78L49.2625 156.309Z" fill="url(#paint48_linear_1_2064)"/>
<path d="M58.5347 154.583C54.3336 153.17 50.4151 153.464 48.4011 153.742C48.0102 154.233 47.457 155.076 47.4074 156.141C47.1911 160.779 56.8622 162.372 57.1194 166.678C57.2909 169.549 53.0576 169.969 50.7391 176.178C49.6264 179.157 50.0857 180.442 50.8305 181.175C52.0096 182.335 54.159 182.364 54.8128 182.373C60.4923 182.448 69.0703 176.813 69.8188 169.252C70.4454 162.923 65.423 156.9 58.5347 154.583Z" fill="url(#paint49_linear_1_2064)"/>
<defs>
<linearGradient id="paint0_linear_1_2064" x1="281.572" y1="173.477" x2="37.5133" y2="330.895" gradientUnits="userSpaceOnUse">
<stop offset="0.0036" stop-color="#E38DDD"/>
<stop offset="1" stop-color="#9571F6"/>
</linearGradient>
<linearGradient id="paint1_linear_1_2064" x1="219.319" y1="95.4592" x2="186.483" y2="273.368" gradientUnits="userSpaceOnUse">
<stop stop-color="#FF9085"/>
<stop offset="1" stop-color="#FB6FBB"/>
</linearGradient>
<linearGradient id="paint2_linear_1_2064" x1="143.549" y1="404.527" x2="145.319" y2="179.75" gradientUnits="userSpaceOnUse">
<stop stop-color="#311944"/>
<stop offset="1" stop-color="#893976"/>
</linearGradient>
<linearGradient id="paint3_linear_1_2064" x1="156.47" y1="229.92" x2="118.154" y2="337.029" gradientUnits="userSpaceOnUse">
<stop stop-color="#311944"/>
<stop offset="1" stop-color="#893976"/>
</linearGradient>
<linearGradient id="paint4_linear_1_2064" x1="145.051" y1="127.044" x2="141.936" y2="381.717" gradientUnits="userSpaceOnUse">
<stop stop-color="#FFC444"/>
<stop offset="0.9964" stop-color="#F36F56"/>
</linearGradient>
<linearGradient id="paint5_linear_1_2064" x1="144.235" y1="107.051" x2="142.15" y2="277.486" gradientUnits="userSpaceOnUse">
<stop stop-color="#FFC444"/>
<stop offset="0.9964" stop-color="#F36F56"/>
</linearGradient>
<linearGradient id="paint6_linear_1_2064" x1="154.827" y1="1.70525" x2="137.273" y2="204.672" gradientUnits="userSpaceOnUse">
<stop stop-color="#FFC444"/>
<stop offset="0.9964" stop-color="#F36F56"/>
</linearGradient>
<linearGradient id="paint7_linear_1_2064" x1="144.493" y1="201.922" x2="144.492" y2="201.969" gradientUnits="userSpaceOnUse">
<stop stop-color="#FFC444"/>
<stop offset="0.9964" stop-color="#F36F56"/>
</linearGradient>
<linearGradient id="paint8_linear_1_2064" x1="145.931" y1="163.457" x2="141.879" y2="494.706" gradientUnits="userSpaceOnUse">
<stop stop-color="#FFC444"/>
<stop offset="0.9964" stop-color="#F36F56"/>
</linearGradient>
<linearGradient id="paint9_linear_1_2064" x1="150.386" y1="171.107" x2="141.563" y2="46.4847" gradientUnits="userSpaceOnUse">
<stop stop-color="#311944"/>
<stop offset="1" stop-color="#893976"/>
</linearGradient>
<linearGradient id="paint10_linear_1_2064" x1="153.995" y1="32.8522" x2="118.678" y2="131.578" gradientUnits="userSpaceOnUse">
<stop stop-color="#311944"/>
<stop offset="1" stop-color="#893976"/>
</linearGradient>
<linearGradient id="paint11_linear_1_2064" x1="145.249" y1="219.181" x2="143.396" y2="370.607" gradientUnits="userSpaceOnUse">
<stop stop-color="#FFC444"/>
<stop offset="0.9964" stop-color="#F36F56"/>
</linearGradient>
<linearGradient id="paint12_linear_1_2064" x1="183.769" y1="-1.63065" x2="118.743" y2="42.5378" gradientUnits="userSpaceOnUse">
<stop stop-color="#311944"/>
<stop offset="1" stop-color="#6B3976"/>
</linearGradient>
<linearGradient id="paint13_linear_1_2064" x1="187.86" y1="-23.0287" x2="189.238" y2="151.395" gradientUnits="userSpaceOnUse">
<stop stop-color="#FF9085"/>
<stop offset="1" stop-color="#FB6FBB"/>
</linearGradient>
<linearGradient id="paint14_linear_1_2064" x1="211.124" y1="100.394" x2="203.183" y2="95.0787" gradientUnits="userSpaceOnUse">
<stop stop-color="#311944"/>
<stop offset="1" stop-color="#6B3976"/>
</linearGradient>
<linearGradient id="paint15_linear_1_2064" x1="208.518" y1="102.514" x2="192.924" y2="55.7313" gradientUnits="userSpaceOnUse">
<stop stop-color="#FFC444"/>
<stop offset="0.9964" stop-color="#F36F56"/>
</linearGradient>
<linearGradient id="paint16_linear_1_2064" x1="211.133" y1="81.0308" x2="205.777" y2="81.0308" gradientUnits="userSpaceOnUse">
<stop stop-color="#311944"/>
<stop offset="1" stop-color="#6B3976"/>
</linearGradient>
<linearGradient id="paint17_linear_1_2064" x1="214.237" y1="95.7366" x2="205.491" y2="69.5005" gradientUnits="userSpaceOnUse">
<stop stop-color="#FFC444"/>
<stop offset="0.9964" stop-color="#F36F56"/>
</linearGradient>
<linearGradient id="paint18_linear_1_2064" x1="828.537" y1="417.464" x2="785.926" y2="393.339" gradientUnits="userSpaceOnUse">
<stop offset="0.0036" stop-color="#E38DDD"/>
<stop offset="1" stop-color="#9571F6"/>
</linearGradient>
<linearGradient id="paint19_linear_1_2064" x1="177.633" y1="37.8414" x2="188.599" y2="84.5256" gradientUnits="userSpaceOnUse">
<stop offset="0.0036" stop-color="#E38DDD"/>
<stop offset="1" stop-color="#9571F6"/>
</linearGradient>
<linearGradient id="paint20_linear_1_2064" x1="194.249" y1="96.2281" x2="184.974" y2="66.8745" gradientUnits="userSpaceOnUse">
<stop offset="0.0036" stop-color="#E38DDD"/>
<stop offset="1" stop-color="#9571F6"/>
</linearGradient>
<linearGradient id="paint21_linear_1_2064" x1="826.18" y1="421.625" x2="783.569" y2="397.5" gradientUnits="userSpaceOnUse">
<stop offset="0.0036" stop-color="#E38DDD"/>
<stop offset="1" stop-color="#9571F6"/>
</linearGradient>
<linearGradient id="paint22_linear_1_2064" x1="170.768" y1="-22.9851" x2="172.132" y2="149.571" gradientUnits="userSpaceOnUse">
<stop stop-color="#FF9085"/>
<stop offset="1" stop-color="#FB6FBB"/>
</linearGradient>
<linearGradient id="paint23_linear_1_2064" x1="169.954" y1="22.0927" x2="173.263" y2="7.07333" gradientUnits="userSpaceOnUse">
<stop stop-color="#FFC444"/>
<stop offset="0.9964" stop-color="#F36F56"/>
</linearGradient>
<linearGradient id="paint24_linear_1_2064" x1="172.196" y1="8.71053" x2="168.404" y2="28.2458" gradientUnits="userSpaceOnUse">
<stop stop-color="#FFC444"/>
<stop offset="0.9964" stop-color="#F36F56"/>
</linearGradient>
<linearGradient id="paint25_linear_1_2064" x1="153.771" y1="46.5179" x2="188.942" y2="46.5179" gradientUnits="userSpaceOnUse">
<stop stop-color="#FF9085"/>
<stop offset="1" stop-color="#FB6FBB"/>
</linearGradient>
<linearGradient id="paint26_linear_1_2064" x1="192.342" y1="47.2372" x2="167.076" y2="47.2372" gradientUnits="userSpaceOnUse">
<stop stop-color="#444B8C"/>
<stop offset="0.9964" stop-color="#3E4177"/>
</linearGradient>
<linearGradient id="paint27_linear_1_2064" x1="216.59" y1="40.4997" x2="181.911" y2="40.4997" gradientUnits="userSpaceOnUse">
<stop stop-color="#444B8C"/>
<stop offset="0.9964" stop-color="#3E4177"/>
</linearGradient>
<linearGradient id="paint28_linear_1_2064" x1="209.317" y1="40.726" x2="181.911" y2="40.726" gradientUnits="userSpaceOnUse">
<stop stop-color="#444B8C"/>
<stop offset="0.9964" stop-color="#3E4177"/>
</linearGradient>
<linearGradient id="paint29_linear_1_2064" x1="158.221" y1="-22.8859" x2="159.585" y2="149.67" gradientUnits="userSpaceOnUse">
<stop stop-color="#FF9085"/>
<stop offset="1" stop-color="#FB6FBB"/>
</linearGradient>
<linearGradient id="paint30_linear_1_2064" x1="176.519" y1="42.2552" x2="168.12" y2="50.17" gradientUnits="userSpaceOnUse">
<stop stop-color="#FFC444"/>
<stop offset="0.9964" stop-color="#F36F56"/>
</linearGradient>
<linearGradient id="paint31_linear_1_2064" x1="30.7403" y1="91.2539" x2="55.9112" y2="131.722" gradientUnits="userSpaceOnUse">
<stop stop-color="#311944"/>
<stop offset="1" stop-color="#893976"/>
</linearGradient>
<linearGradient id="paint32_linear_1_2064" x1="29.6531" y1="90.6144" x2="54.7378" y2="130.944" gradientUnits="userSpaceOnUse">
<stop stop-color="#FF9085"/>
<stop offset="1" stop-color="#FB6FBB"/>
</linearGradient>
<linearGradient id="paint33_linear_1_2064" x1="13.0727" y1="100.779" x2="35.8791" y2="137.445" gradientUnits="userSpaceOnUse">
<stop stop-color="#FF9085"/>
<stop offset="1" stop-color="#FB6FBB"/>
</linearGradient>
<linearGradient id="paint34_linear_1_2064" x1="38.8114" y1="159.765" x2="32.3955" y2="167.433" gradientUnits="userSpaceOnUse">
<stop stop-color="#FFC444"/>
<stop offset="0.9964" stop-color="#F36F56"/>
</linearGradient>
<linearGradient id="paint35_linear_1_2064" x1="42.9004" y1="80.4489" x2="33.3483" y2="204.048" gradientUnits="userSpaceOnUse">
<stop offset="0.0036" stop-color="#E38DDD"/>
<stop offset="1" stop-color="#9571F6"/>
</linearGradient>
<linearGradient id="paint36_linear_1_2064" x1="32.832" y1="274.002" x2="28.694" y2="276.751" gradientUnits="userSpaceOnUse">
<stop stop-color="#444B8C"/>
<stop offset="0.9964" stop-color="#26264F"/>
</linearGradient>
<linearGradient id="paint37_linear_1_2064" x1="28.8276" y1="276.777" x2="29.733" y2="270.374" gradientUnits="userSpaceOnUse">
<stop stop-color="#FFC444"/>
<stop offset="0.9964" stop-color="#F36F56"/>
</linearGradient>
<linearGradient id="paint38_linear_1_2064" x1="32.5208" y1="273.534" x2="28.3829" y2="276.284" gradientUnits="userSpaceOnUse">
<stop stop-color="#444B8C"/>
<stop offset="0.9964" stop-color="#26264F"/>
</linearGradient>
<linearGradient id="paint39_linear_1_2064" x1="59.1058" y1="276.054" x2="55.3936" y2="279.356" gradientUnits="userSpaceOnUse">
<stop stop-color="#444B8C"/>
<stop offset="0.9964" stop-color="#26264F"/>
</linearGradient>
<linearGradient id="paint40_linear_1_2064" x1="55.5303" y1="279.363" x2="55.5303" y2="272.896" gradientUnits="userSpaceOnUse">
<stop stop-color="#FFC444"/>
<stop offset="0.9964" stop-color="#F36F56"/>
</linearGradient>
<linearGradient id="paint41_linear_1_2064" x1="55.8344" y1="282.328" x2="31.6279" y2="184.595" gradientUnits="userSpaceOnUse">
<stop stop-color="#444B8C"/>
<stop offset="0.9964" stop-color="#26264F"/>
</linearGradient>
<linearGradient id="paint42_linear_1_2064" x1="55.9787" y1="79.8571" x2="46.4266" y2="203.456" gradientUnits="userSpaceOnUse">
<stop offset="0.0036" stop-color="#E38DDD"/>
<stop offset="1" stop-color="#9571F6"/>
</linearGradient>
<linearGradient id="paint43_linear_1_2064" x1="58.733" y1="275.635" x2="55.0208" y2="278.937" gradientUnits="userSpaceOnUse">
<stop stop-color="#444B8C"/>
<stop offset="0.9964" stop-color="#26264F"/>
</linearGradient>
<linearGradient id="paint44_linear_1_2064" x1="44.4111" y1="162.764" x2="47.4221" y2="171.994" gradientUnits="userSpaceOnUse">
<stop stop-color="#FFC444"/>
<stop offset="0.9964" stop-color="#F36F56"/>
</linearGradient>
<linearGradient id="paint45_linear_1_2064" x1="44.3944" y1="158.634" x2="49.2387" y2="202.325" gradientUnits="userSpaceOnUse">
<stop stop-color="#FFC444"/>
<stop offset="0.9964" stop-color="#F36F56"/>
</linearGradient>
<linearGradient id="paint46_linear_1_2064" x1="44.1931" y1="158.656" x2="49.0374" y2="202.348" gradientUnits="userSpaceOnUse">
<stop stop-color="#FFC444"/>
<stop offset="0.9964" stop-color="#F36F56"/>
</linearGradient>
<linearGradient id="paint47_linear_1_2064" x1="44.6453" y1="158.606" x2="49.4897" y2="202.298" gradientUnits="userSpaceOnUse">
<stop stop-color="#FFC444"/>
<stop offset="0.9964" stop-color="#F36F56"/>
</linearGradient>
<linearGradient id="paint48_linear_1_2064" x1="42.8704" y1="155.935" x2="48.6775" y2="157.542" gradientUnits="userSpaceOnUse">
<stop stop-color="#FFC444"/>
<stop offset="0.9964" stop-color="#F36F56"/>
</linearGradient>
<linearGradient id="paint49_linear_1_2064" x1="64.9619" y1="80.5514" x2="55.4098" y2="204.151" gradientUnits="userSpaceOnUse">
<stop offset="0.0036" stop-color="#E38DDD"/>
<stop offset="1" stop-color="#9571F6"/>
</linearGradient>
</defs>
</svg>
