<svg width="14" height="16" viewBox="0 0 14 16" fill="none" xmlns="http://www.w3.org/2000/svg">
<path fill-rule="evenodd" clip-rule="evenodd" d="M0.512167 0.502857C0.84004 0.181274 1.28486 0.000400119 1.74883 0L8.267 0C8.73097 0.000400119 9.17579 0.181274 9.50367 0.502857L13.4867 4.40457C13.8149 4.72575 13.9996 5.1615 14 5.616V14.2857C14 14.7404 13.8156 15.1764 13.4874 15.4979C13.1592 15.8194 12.7141 16 12.25 16H1.75C1.28587 16 0.840752 15.8194 0.512563 15.4979C0.184374 15.1764 0 14.7404 0 14.2857V1.71429C0 1.25943 0.183167 0.822857 0.512167 0.502857ZM5.96283 5.17371C6.05652 5.23909 6.13613 5.32192 6.1971 5.41746C6.25808 5.51301 6.29923 5.61939 6.31819 5.73053C6.33715 5.84167 6.33356 5.95538 6.30762 6.06515C6.28167 6.17493 6.23389 6.27862 6.167 6.37029L4.53717 8.60571C4.46326 8.70686 4.36777 8.79104 4.25732 8.8524C4.14687 8.91377 4.0241 8.95085 3.89756 8.96107C3.77101 8.97129 3.64371 8.95441 3.52449 8.91159C3.40527 8.86878 3.29699 8.80106 3.20717 8.71314L2.2295 7.75543C2.07494 7.59294 1.9908 7.37803 1.9948 7.15597C1.9988 6.93392 2.09063 6.72205 2.25094 6.565C2.41126 6.40796 2.62754 6.318 2.85422 6.31409C3.08091 6.31017 3.3003 6.39259 3.46617 6.544L3.7135 6.78514L4.7425 5.37486C4.87727 5.18983 5.08154 5.06482 5.31039 5.02732C5.53924 4.98981 5.77392 5.04174 5.96283 5.17371ZM7.07117 7.28457C7.07117 7.05724 7.16335 6.83923 7.32745 6.67848C7.49154 6.51773 7.7141 6.42743 7.94617 6.42743H10.8628C11.0949 6.42743 11.3175 6.51773 11.4816 6.67848C11.6456 6.83923 11.7378 7.05724 11.7378 7.28457C11.7378 7.5119 11.6456 7.72992 11.4816 7.89066C11.3175 8.05141 11.0949 8.14171 10.8628 8.14171H7.94617C7.7141 8.14171 7.49154 8.05141 7.32745 7.89066C7.16335 7.72992 7.07117 7.5119 7.07117 7.28457ZM7.07117 11.8206C7.07117 11.5932 7.16335 11.3752 7.32745 11.2145C7.49154 11.0537 7.7141 10.9634 7.94617 10.9634H10.8628C11.0949 10.9634 11.3175 11.0537 11.4816 11.2145C11.6456 11.3752 11.7378 11.5932 11.7378 11.8206C11.7378 12.0479 11.6456 12.2659 11.4816 12.4267C11.3175 12.5874 11.0949 12.6777 10.8628 12.6777H7.94617C7.7141 12.6777 7.49154 12.5874 7.32745 12.4267C7.16335 12.2659 7.07117 12.0479 7.07117 11.8206ZM6.167 10.9771C6.237 10.8858 6.28765 10.7816 6.31597 10.6708C6.34429 10.56 6.34971 10.4447 6.33191 10.3318C6.31411 10.2189 6.27346 10.1107 6.21233 10.0134C6.1512 9.91608 6.07084 9.83174 5.97597 9.76531C5.88109 9.69889 5.77362 9.65171 5.65986 9.62655C5.54611 9.60139 5.42836 9.59876 5.31356 9.61881C5.19875 9.63887 5.08919 9.6812 4.99132 9.74333C4.89346 9.80545 4.80926 9.88611 4.74367 9.98057L3.7135 11.392L3.46617 11.1497C3.3003 10.9983 3.08091 10.9159 2.85422 10.9198C2.62754 10.9237 2.41126 11.0137 2.25094 11.1707C2.09063 11.3278 1.9988 11.5396 1.9948 11.7617C1.9908 11.9837 2.07494 12.1987 2.2295 12.3611L3.20717 13.3189C3.29699 13.4068 3.40527 13.4745 3.52449 13.5173C3.64371 13.5601 3.77101 13.577 3.89756 13.5668C4.0241 13.5566 4.14687 13.5195 4.25732 13.4581C4.36777 13.3968 4.46326 13.3126 4.53717 13.2114L6.167 10.9771Z" fill="white"/>
</svg>
