<svg width="117" height="194" viewBox="0 0 117 194" fill="none" xmlns="http://www.w3.org/2000/svg">
<path d="M100.161 34.6931C101.051 34.0821 101.778 33.2639 102.28 32.3092C102.783 31.3544 103.045 30.2916 103.045 29.2127C103.045 28.1338 102.783 27.0711 102.28 26.1163C101.778 25.1615 101.051 24.3433 100.161 23.7324C96.1679 20.9909 90.0237 23.0205 86.4038 19.8045C85.1971 18.7291 84.4802 17.2195 83.8188 15.7655C82.9252 13.7763 82.0568 11.7266 81.9407 9.54552C81.9407 9.33347 81.9407 9.12143 81.9407 8.90434C83.7936 10.0504 85.9191 10.631 87.8982 9.91408C88.403 9.73737 88.9483 9.4496 89.0392 8.90434C88.076 9.11198 87.0767 9.08018 86.1287 8.81171C85.1807 8.54324 84.313 8.04631 83.6017 7.36448C84.1523 7.51087 84.7291 7.52873 85.2876 7.41667C85.8461 7.30462 86.3714 7.06566 86.8228 6.71825C87.7234 6.00585 88.3525 5.00613 88.605 3.88593C88.7856 3.26245 88.7733 2.59892 88.5697 1.98257C88.3404 1.49759 87.9853 1.08299 87.5413 0.781956C87.0973 0.480927 86.5807 0.304497 86.0453 0.271058C85.1047 0.151742 84.1494 0.23436 83.2433 0.513398C82.5717 0.708184 81.9259 0.982774 81.3197 1.33129C80.7501 1.7246 80.3148 2.28321 80.0727 2.93172C79.312 2.15706 78.4152 1.52898 77.4272 1.07885C76.87 0.837555 76.2943 0.641699 75.7056 0.493202C72.9366 -0.271544 69.9971 -0.144352 67.3045 0.856709L65.5274 1.49285C61.6702 3.96671 60.5393 4.91586 59.469 12.4283C59.0802 15.19 57.0405 17.9466 57.0203 20.7385C57.0203 23.1316 56.99 25.5499 57.5252 27.8874C57.9412 29.5847 58.5317 31.2343 59.2872 32.8099C60.7008 35.9149 62.4376 38.9895 65.1134 41.1049C65.9262 41.7461 66.8956 42.3116 67.9306 42.2358C69.2887 42.1399 70.3186 40.9939 71.0355 39.8377C71.8787 38.4948 72.5501 36.9398 72.3684 35.3646C74.4954 38.8255 77.4977 41.6641 81.0723 43.5939C82.6378 44.5115 84.4041 45.0315 86.217 45.1086C87.8976 45.0284 89.5416 44.5894 91.0385 43.8211C92.5177 43.1446 94.1636 41.9582 93.9718 40.3426C95.004 40.5729 96.0776 40.5402 97.0939 40.2473C98.1102 39.9544 99.0365 39.4108 99.7879 38.6664C100.848 37.586 101.373 35.5867 100.161 34.6931Z" fill="#263238"/>
<path d="M61.4477 184.69L55.7982 184.912L51.9915 171.891L60.448 171.568L61.4477 184.69Z" fill="#FFBBB5"/>
<path d="M55.5912 184.584L61.7203 182.867C61.8257 182.833 61.94 182.84 62.0409 182.886C62.1417 182.931 62.2219 183.013 62.2656 183.115L64.3204 187.77C64.4084 187.993 64.4048 188.242 64.3102 188.462C64.2156 188.682 64.0378 188.856 63.8155 188.946L63.7044 188.981C61.5587 189.542 60.5086 189.708 57.7975 190.461C56.1364 190.93 51.2897 193.111 48.9168 193.303C46.5439 193.495 46.2359 191.152 47.2053 190.865C50.336 189.946 53.027 187.923 54.7783 185.17C54.9717 184.885 55.2596 184.677 55.5912 184.584Z" fill="#263238"/>
<path d="M53.834 186.108C53.3783 186.28 52.8779 186.29 52.4153 186.139C52.3057 186.086 52.2107 186.008 52.1385 185.91C52.0663 185.812 52.0192 185.699 52.0013 185.578C51.9862 185.505 51.9899 185.429 52.0119 185.358C52.034 185.286 52.0738 185.221 52.1275 185.169C52.6879 184.619 55.1568 185.119 55.4597 185.169C55.4866 185.174 55.5111 185.187 55.5294 185.207C55.5478 185.228 55.5588 185.253 55.5607 185.281C55.5675 185.308 55.5641 185.337 55.5511 185.362C55.5381 185.387 55.5163 185.407 55.49 185.417C54.9611 185.699 54.4066 185.931 53.834 186.108ZM52.5617 185.275C52.476 185.292 52.396 185.33 52.3295 185.387C52.3078 185.407 52.2922 185.432 52.2842 185.461C52.2761 185.489 52.2761 185.52 52.2841 185.548C52.2946 185.628 52.324 185.703 52.3696 185.769C52.4153 185.835 52.4759 185.889 52.5466 185.927C52.9606 186.129 53.8744 185.927 55.0305 185.387C54.2198 185.21 53.385 185.172 52.5617 185.275Z" fill="#FF4043"/>
<path d="M55.4907 185.437H55.4402C54.7081 185.321 53.0875 184.513 53.0168 183.862C53.0135 183.747 53.0497 183.634 53.1195 183.542C53.1893 183.45 53.2885 183.385 53.4005 183.357C53.5237 183.306 53.6558 183.279 53.7893 183.279C53.9227 183.279 54.0549 183.306 54.178 183.357C55.0262 183.741 55.5614 185.17 55.5816 185.235C55.5937 185.254 55.6002 185.276 55.6002 185.298C55.6002 185.321 55.5937 185.343 55.5816 185.361C55.5751 185.381 55.5631 185.399 55.547 185.412C55.531 185.426 55.5114 185.434 55.4907 185.437ZM53.5722 183.594H53.4964C53.2642 183.68 53.2743 183.786 53.2794 183.817C53.3248 184.2 54.4557 184.882 55.2332 185.094C55.0063 184.488 54.5971 183.968 54.0619 183.605C53.905 183.543 53.7315 183.54 53.5722 183.594Z" fill="#FF4043"/>
<path d="M112.944 141.564L109.259 145.865L96.2937 139.615L101.787 134.42L112.944 141.564Z" fill="#FFBBB5"/>
<path d="M107.901 145.628L111.278 140.226C111.334 140.131 111.422 140.06 111.526 140.027C111.631 139.993 111.744 140 111.844 140.044L116.499 142.104C116.606 142.158 116.701 142.232 116.779 142.322C116.857 142.413 116.917 142.518 116.954 142.631C116.992 142.745 117.006 142.865 116.998 142.984C116.989 143.103 116.956 143.219 116.903 143.326C116.896 143.345 116.888 143.364 116.877 143.382C115.666 145.244 114.964 146.078 113.505 148.455C112.591 149.915 111.112 152.924 109.85 154.923C108.587 156.922 106.527 155.796 106.871 154.847C108.416 150.576 107.971 148.526 107.694 146.592C107.653 146.257 107.726 145.918 107.901 145.628Z" fill="#263238"/>
<path d="M106.987 148.531H106.921C106.795 148.561 106.664 148.56 106.539 148.526C106.413 148.493 106.298 148.429 106.204 148.339C106.137 148.292 106.085 148.226 106.053 148.151C106.021 148.075 106.01 147.992 106.023 147.91C106.119 147.198 107.971 146.32 108.184 146.229C108.204 146.212 108.23 146.203 108.257 146.203C108.283 146.203 108.309 146.212 108.33 146.229C108.35 146.245 108.364 146.267 108.371 146.291C108.377 146.316 108.375 146.342 108.365 146.365C108.098 147.107 107.628 148.284 106.987 148.531ZM107.997 146.618C107.265 146.981 106.331 147.572 106.28 147.951C106.276 147.987 106.283 148.024 106.299 148.057C106.315 148.09 106.34 148.118 106.371 148.137C106.432 148.197 106.507 148.24 106.589 148.263C106.671 148.286 106.758 148.288 106.841 148.269C107.189 148.193 107.623 147.582 107.966 146.643L107.997 146.618Z" fill="#FF4043"/>
<path d="M108.098 146.577C107.462 146.825 106.114 146.966 105.685 146.577C105.609 146.503 105.56 146.405 105.546 146.3C105.533 146.195 105.555 146.088 105.609 145.997C105.65 145.902 105.713 145.819 105.792 145.752C105.87 145.686 105.963 145.638 106.063 145.613C106.856 145.376 108.239 146.254 108.295 146.254C108.317 146.265 108.335 146.283 108.346 146.304C108.358 146.326 108.363 146.351 108.36 146.375C108.361 146.399 108.354 146.422 108.341 146.441C108.329 146.461 108.311 146.477 108.29 146.486L108.098 146.577ZM106.078 145.87C105.97 145.912 105.881 145.993 105.831 146.098C105.812 146.141 105.802 146.189 105.802 146.236C105.802 146.284 105.812 146.332 105.831 146.375C106.119 146.643 107.245 146.582 107.896 146.375C107.391 146.113 106.573 145.734 106.099 145.87H106.078Z" fill="#FF4043"/>
<path d="M51.7541 34.8243L51.4612 35.1424L51.0674 35.5261C50.7948 35.7937 50.5171 36.0663 50.2193 36.3339C49.6368 36.9057 49.0233 37.445 48.3815 37.9495C47.0891 38.9844 45.731 39.9336 44.3426 40.8626C42.9542 41.7915 41.4951 42.6397 40.0209 43.4475L37.7591 44.6087L36.6029 45.159L36.2394 45.3357C36.0816 45.0982 35.9575 44.84 35.8709 44.5683C35.3406 43.0884 34.9666 41.557 34.7551 39.9992C34.2876 36.558 33.9961 33.0951 33.8817 29.6242L30.2668 29.3263C29.5867 32.9987 29.2705 36.7292 29.3227 40.4637C29.3483 42.49 29.6195 44.5057 30.1305 46.4666C30.4599 47.7595 31.0662 48.9653 31.9076 50.0007C32.5561 50.7928 33.4109 51.3902 34.3776 51.7269C35.3443 52.0637 36.3852 52.1268 37.3855 51.9091C37.7893 51.8238 38.186 51.7073 38.5719 51.5607L39.2333 51.3083L40.5561 50.8034C41.4396 50.4803 42.3029 50.0562 43.1713 49.6725C44.8998 48.8713 46.585 47.9799 48.22 47.0018C49.8827 46.0077 51.4813 44.91 53.0061 43.7151C53.7634 43.0991 54.5208 42.4731 55.2478 41.7865C55.6113 41.4532 55.9748 41.0897 56.3383 40.7262C56.515 40.5344 56.6917 40.3577 56.8785 40.1456C57.0653 39.9336 57.2117 39.7771 57.4742 39.454L51.7541 34.8243ZM36.5827 45.7699C36.545 45.7349 36.5112 45.696 36.4817 45.6538C36.5979 45.7295 36.6231 45.7749 36.5827 45.7749V45.7699Z" fill="#FFBBB5"/>
<path d="M57.3179 29.9776C54.9702 29.4021 49.0178 37.1165 49.0178 37.1165L52.6377 44.0029C52.6377 44.0029 62.6594 38.3585 62.2656 35.2434C61.8668 32.0022 60.7308 30.8157 57.3179 29.9776Z" fill="#FF4043"/>
<path opacity="0.2" d="M55.763 32.6484L56.3385 41.6654C54.3493 43.0286 52.6277 44.003 52.6277 44.003L51.8755 42.559L55.763 32.6484Z" fill="black"/>
<path d="M33.3263 32.0325L35.0327 25.4035L27.7878 26.1709C27.7878 26.1709 28.3483 30.7148 30.5091 32.7342L33.3263 32.0325Z" fill="#FFBBB5"/>
<path d="M54.3596 32.3354C53.8093 35.5262 53.2893 43.6344 55.6369 62.4812L78.6186 63.8998C78.8003 55.0899 79.2598 47.9863 84.0308 30.9621C84.1354 30.5925 84.1662 30.2059 84.1213 29.8244C84.0764 29.4428 83.9568 29.0739 83.7693 28.7386C83.5817 28.4034 83.3299 28.1084 83.0283 27.8705C82.7266 27.6326 82.3811 27.4565 82.0113 27.3523C81.8128 27.292 81.6076 27.2564 81.4004 27.2463C79.3364 27.1167 77.2672 27.0914 75.2006 27.1706C71.6606 27.2458 68.1299 27.5647 64.6337 28.1248C61.6499 28.6599 58.3885 29.493 56.4901 29.9978C55.9482 30.142 55.4592 30.4391 55.0814 30.8536C54.7037 31.268 54.4531 31.7824 54.3596 32.3354Z" fill="#FF4043"/>
<path d="M55.6368 62.4812C55.6368 62.4812 46.1048 104.89 45.4081 122.177C44.6862 140.145 51.8755 181.878 51.8755 181.878L63.9268 179.505C63.9268 179.505 60.014 142.867 61.7861 125.292C63.6996 106.137 72.4641 63.5162 72.4641 63.5162L55.6368 62.4812Z" fill="#263238"/>
<path opacity="0.2" d="M64.8809 73.9366C58.5347 84.9326 61.7658 105.92 63.2855 113.751C65.0222 102.255 67.6223 88.2092 69.6115 77.9049C69.1167 71.9827 67.8041 68.8576 64.8809 73.9366Z" fill="black"/>
<path d="M61.7102 62.8496C61.7102 62.8496 64.901 114.72 68.8592 121.919C75.1599 133.299 99.3382 145.598 99.3382 145.598L106.911 136.753C106.911 136.753 90.2 122.853 81.3749 114.957C79.2746 100.609 86.7013 77.9705 78.6738 63.925L61.7102 62.8496Z" fill="#263238"/>
<path d="M65.8757 1.13946C64.4908 1.72018 63.2759 2.64257 62.3444 3.82041C61.4129 4.99824 60.7953 6.39305 60.5493 7.87442C60.4079 10.9693 61.8872 13.4027 62.1699 16.4572L72.2926 0.11962C70.3942 0.180205 69.642 -0.354959 65.8757 1.13946Z" fill="#263238"/>
<path d="M70.086 0.301471C73.4131 -0.592149 76.1445 1.68481 77.6591 3.20447C78.4656 4.21041 79.0544 5.3729 79.3881 6.6183C79.7218 7.86369 79.7932 9.16482 79.5978 10.4393C79.1737 12.8475 78.6587 15.7656 77.0078 16.7552C76.5509 17.042 76.0383 17.2286 75.5039 17.3025C74.9695 17.3765 74.4255 17.3362 73.9079 17.1843L64.1841 4.0577C65.7972 2.32081 67.8295 1.0274 70.086 0.301471Z" fill="#263238"/>
<path d="M64.6334 28.1246C65.5068 27.6753 67.5465 25.6003 67.6172 24.2876V19.9003L67.6424 19.764L70.6969 18.8754C70.8952 18.7411 71.1183 18.6476 71.3531 18.6002C71.5879 18.5529 71.8298 18.5527 72.0647 18.5997C72.2996 18.6467 72.5228 18.7399 72.7213 18.8739C72.9199 19.0079 73.0898 19.18 73.2212 19.3803C73.4383 19.6882 73.6605 19.6226 73.6605 20.0012C73.6605 20.0871 73.5141 20.5869 73.504 20.6677C73.0294 23.4949 73.1354 25.6558 74.4279 27.231L66.8296 32.6886C63.9367 29.5938 64.1033 28.4376 64.6334 28.1246Z" fill="#FFBBB5"/>
<path opacity="0.2" d="M67.6071 24.0353C67.6071 23.9142 67.6071 23.6668 67.6071 23.5305C67.6071 22.5207 67.6071 21.3797 67.6071 19.744C67.6232 19.6951 67.6317 19.644 67.6324 19.5925L70.8484 18.6282C71.0602 18.4845 71.2986 18.3846 71.5496 18.3345C71.8006 18.2844 72.0591 18.2849 72.3098 18.3362C72.5606 18.3875 72.7986 18.4884 73.0097 18.6331C73.2209 18.7777 73.4009 18.9632 73.5393 19.1785C73.7514 19.5067 73.61 19.8298 73.6151 20.2236C72.0886 22.2217 69.9672 23.6836 67.5566 24.3989C67.5667 24.2779 67.5667 24.1563 67.5566 24.0353H67.6071Z" fill="black"/>
<path d="M77.7401 10.8229C76.6395 16.3764 76.2912 18.7291 73.1711 21.2737C68.4707 25.0955 62.1548 22.6873 61.6146 16.9469C61.1703 11.7922 63.0181 3.60829 68.607 1.99775C74.196 0.387218 78.8408 5.27436 77.7401 10.8229Z" fill="#FFBBB5"/>
<path d="M79.32 16.0331C78.9858 16.5233 78.5575 16.9423 78.06 17.2655C77.5625 17.5888 77.0057 17.81 76.422 17.9163C74.9074 18.1536 74.4025 15.6696 75.0235 14.2105C75.3133 13.5622 75.827 13.04 76.4705 12.7396C77.114 12.4391 77.8442 12.3806 78.5273 12.5748C79.9056 13.0039 80.1884 14.776 79.32 16.0331Z" fill="#FFBBB5"/>
<path opacity="0.2" d="M76.2354 15.4325C76.3235 14.8969 76.6146 14.416 77.0482 14.0895C77.2636 13.9308 77.5085 13.8165 77.7685 13.7532C78.0285 13.6899 78.2985 13.679 78.5628 13.7209" stroke="black" stroke-width="0.5" stroke-linecap="round" stroke-linejoin="round"/>
<path d="M70.6361 11.9741C70.5553 12.5698 70.1918 13.0292 69.8232 12.9838C69.4547 12.9384 69.2275 12.4486 69.3184 11.8529C69.4092 11.2571 69.7626 10.7927 70.1312 10.8431C70.4998 10.8936 70.737 11.3733 70.6361 11.9741Z" fill="#263238"/>
<path d="M65.2345 11.464C65.1537 12.0396 64.7902 12.4738 64.4267 12.4738C64.0632 12.4738 63.831 11.9689 63.9218 11.3731C64.0127 10.7774 64.3661 10.3634 64.7296 10.3634C65.0931 10.3634 65.3153 10.8834 65.2345 11.464Z" fill="#263238"/>
<path d="M71.5703 9.93921C71.5341 9.93889 71.4984 9.9311 71.4654 9.91633C71.4324 9.90156 71.4028 9.88013 71.3784 9.85338C71.1642 9.59641 70.8885 9.39779 70.5769 9.27598C70.2653 9.15417 69.928 9.11312 69.5962 9.15666C69.5616 9.16392 69.5258 9.1638 69.4911 9.1563C69.4565 9.1488 69.4238 9.1341 69.3952 9.11314C69.3667 9.09219 69.3428 9.06546 69.3253 9.03468C69.3077 9.00391 69.2968 8.96978 69.2933 8.93452C69.2841 8.8607 69.3028 8.78608 69.3457 8.72535C69.3887 8.66462 69.4529 8.62217 69.5256 8.60635C69.9448 8.54329 70.3732 8.58859 70.77 8.73794C71.1668 8.88729 71.5188 9.13573 71.7924 9.45958C71.8383 9.51812 71.8601 9.59192 71.8536 9.66599C71.847 9.74006 71.8125 9.80886 71.7571 9.85843C71.7062 9.90645 71.6401 9.93505 71.5703 9.93921Z" fill="#263238"/>
<path d="M63.1641 8.34902C63.1349 8.33784 63.1089 8.3195 63.0887 8.29568C63.0684 8.27186 63.0544 8.24333 63.048 8.21271C63.0302 8.14371 63.0378 8.07062 63.0693 8.0067C63.1008 7.94279 63.1541 7.89228 63.2197 7.86434C63.5691 7.67521 63.9622 7.58168 64.3594 7.5932C64.7565 7.60473 65.1436 7.7209 65.4815 7.92998C65.5272 7.97796 65.5545 8.04045 65.5588 8.10656C65.5632 8.17267 65.5441 8.23819 65.505 8.29169C65.466 8.34519 65.4094 8.38327 65.3451 8.39929C65.2808 8.4153 65.2129 8.40823 65.1533 8.37931C64.8838 8.21709 64.5764 8.12845 64.2619 8.12224C63.9474 8.11604 63.6367 8.1925 63.361 8.34397C63.3311 8.36068 63.2975 8.36986 63.2632 8.37074C63.2289 8.37162 63.1949 8.36417 63.1641 8.34902Z" fill="#263238"/>
<path d="M66.2591 11.2366C65.6488 12.3971 64.9231 13.4931 64.0932 14.5082C64.0482 14.5589 64.0155 14.6193 63.9978 14.6848C63.98 14.7502 63.9776 14.8189 63.9908 14.8854C64.004 14.9519 64.0324 15.0144 64.0739 15.0681C64.1153 15.1218 64.1685 15.1652 64.2295 15.1948C64.7006 15.3887 65.2166 15.4464 65.7189 15.3614L66.2591 11.2366Z" fill="#EA7B75"/>
<path d="M70.394 10.9188L69.147 10.4897C69.147 10.4897 69.7579 11.5247 70.394 10.9188Z" fill="#263238"/>
<path d="M64.8557 10.3936L63.6086 9.96446C63.6086 9.96446 64.2195 10.9994 64.8557 10.3936Z" fill="#263238"/>
<path d="M65.8047 16.9571C66.1061 17.5238 66.3676 18.1109 66.5872 18.714L66.9154 18.6484C68.3947 18.3354 68.9803 17.6892 69.1772 17.0732C69.2665 16.7717 69.2821 16.4531 69.2227 16.1443C69.196 15.9697 69.145 15.7998 69.0712 15.6394C68.3846 16.2856 67.0517 16.6845 66.2944 16.8662C66.0016 16.9218 65.8047 16.9571 65.8047 16.9571Z" fill="#263238"/>
<path d="M66.3044 16.8411L66.5518 17.3459C67.9453 17.0481 68.8843 16.6442 69.2327 16.1242C69.206 15.9496 69.155 15.7797 69.0812 15.6193C68.3946 16.2605 67.0416 16.6492 66.3044 16.8411Z" fill="white"/>
<path d="M66.9155 18.6687C68.3948 18.3556 68.9805 17.7094 69.1774 17.0935C68.6163 17.2236 68.0829 17.4527 67.6022 17.77C67.2864 17.9919 67.0466 18.3057 66.9155 18.6687Z" fill="#FD504E"/>
<path d="M75.6143 11.8327C75.6143 11.8327 73.1404 7.6322 73.5948 4.50706C73.5948 4.50706 62.8966 -0.0670629 62.1949 9.93946C62.1949 9.93946 61.2811 1.00831 70.6262 1.29608C79.9713 1.58386 79.7139 14.0642 74.8419 17.5327C74.8318 17.4873 77.139 14.4631 75.6143 11.8327Z" fill="#263238"/>
<path d="M66.2747 1.75044C64.8631 2.71437 63.7923 4.09972 63.2152 5.70862C63.0031 6.91526 64.4622 8.08656 64.4622 8.08656L66.9007 5.80959L66.4918 8.132C69.7835 8.35919 71.9595 6.95565 73.5094 4.63325L72.2927 0.998184C72.2927 0.998184 67.5116 0.998183 66.2747 1.75044Z" fill="#263238"/>
<path d="M69.6872 25.2016H0V79.9395H69.6872V25.2016Z" fill="#FF4043"/>
<path opacity="0.8" d="M69.6872 25.2016H0V79.9395H69.6872V25.2016Z" fill="white"/>
<path opacity="0.3" d="M69.6875 25.2016H67.6074V79.9395H69.6875V25.2016Z" fill="#FF4043"/>
<path d="M28.0909 23.4495C28.8129 23.0053 29.3531 23.808 29.3531 23.808C30.2265 22.9548 30.9283 23.6414 30.9283 23.6414C31.3423 23.1365 32.1955 23.6414 32.1955 23.6414C32.2902 23.5618 32.4001 23.5024 32.5186 23.4667C32.6371 23.4311 32.7616 23.42 32.8845 23.4342C33.0074 23.4484 33.1261 23.4875 33.2333 23.5492C33.3406 23.6109 33.4341 23.6938 33.5081 23.7929L33.4425 23.1668C33.3769 22.5458 33.8969 21.9147 34.1645 22.0208C34.3159 22.0813 34.7047 23.0305 34.836 23.9544C34.9672 24.8783 34.6996 25.156 34.6996 25.156H33.7353C33.7353 25.156 33.7858 27.125 32.9982 27.2866C32.9239 27.3163 32.8436 27.328 32.764 27.3206C32.6843 27.3132 32.6075 27.287 32.5399 27.2441C32.4724 27.2012 32.416 27.1428 32.3754 27.0738C32.3348 27.0049 32.3112 26.9272 32.3066 26.8473C32.3427 27.0672 32.2954 27.2926 32.174 27.4794C32.0526 27.6661 31.8658 27.8009 31.6502 27.8571C30.9485 28.0035 30.8576 26.5646 30.8475 26.2566C30.844 26.3885 30.8119 26.518 30.7533 26.6362C30.6947 26.7543 30.6112 26.8584 30.5083 26.941C30.4055 27.0236 30.286 27.0829 30.158 27.1147C30.03 27.1464 29.8966 27.15 29.7671 27.125C29.1764 26.9786 29.55 25.0702 29.55 25.0702C29.5025 25.2473 29.4048 25.4068 29.2686 25.5296C29.1324 25.6523 28.9636 25.733 28.7826 25.7619C28.1565 25.8426 28.2525 25.2014 28.2525 25.2014L27.4699 25.1409C27.4194 25.1409 27.3689 23.8888 28.0909 23.4495Z" fill="#FFBBB5"/>
<path d="M11.5561 52.9038C11.2636 52.9312 10.9687 52.9007 10.688 52.8141C10.4073 52.7274 10.1465 52.5864 9.92032 52.3989C9.61133 52.0568 9.44828 51.6075 9.46594 51.1469C9.48702 50.6038 9.57866 50.0658 9.73856 49.5464C9.92032 48.9254 10.1021 48.3297 10.2939 47.7642C10.6322 46.7999 11.0058 45.7952 11.4046 44.735C11.8035 43.6748 12.2074 42.6549 12.6163 41.6301C13.0253 40.6052 13.4393 39.6106 13.8432 38.6614C14.2471 37.7123 14.6308 36.8439 14.9892 36.0613C13.9441 36.0613 13.0455 36.0967 12.3033 36.127C11.5611 36.1573 10.8796 36.2078 10.2838 36.2683C9.68808 36.3289 9.03175 36.4148 8.35522 36.5359C8.37983 36.251 8.47187 35.9761 8.62374 35.7338C8.77562 35.4915 8.98296 35.2888 9.22865 35.1425C9.86949 34.7713 10.582 34.5407 11.3188 34.466C12.3043 34.3329 13.2982 34.2722 14.2925 34.2842C15.0599 34.2842 15.7617 34.3145 16.3928 34.365C17.0238 34.4155 17.6246 34.466 18.2002 34.5215C18.7757 34.577 19.3412 34.6275 19.8915 34.6578C20.356 34.8901 20.6539 35.0415 20.8003 35.1021C20.9467 35.1627 20.9719 35.193 20.881 35.193C20.4876 35.4889 20.0345 35.6956 19.5532 35.7988C19.0115 35.9284 18.4587 36.0061 17.9023 36.0311C17.3369 36.0613 16.7866 36.0714 16.2665 36.0714C15.5934 37.6803 14.9505 39.444 14.3379 41.3625C13.7254 43.281 13.1178 45.2685 12.5153 47.325C12.3134 48.0924 12.1367 48.7538 12.0105 49.3142C11.8843 49.8746 11.7429 50.3845 11.6672 50.8288C11.5869 51.2941 11.5447 51.7652 11.541 52.2374C11.541 52.3131 11.541 52.3989 11.541 52.4999C11.541 52.6009 11.541 52.7675 11.5561 52.9038Z" fill="#FF4043"/>
<path d="M18.6398 51.8134C18.3166 51.8134 18.0793 51.5509 17.9279 51.0359C17.7704 50.4621 17.6956 49.8688 17.7058 49.2739C17.7312 48.4018 17.86 47.5358 18.0895 46.694C18.3641 45.6229 18.6927 44.5664 19.0739 43.5285C19.4829 42.4127 19.9373 41.3273 20.4421 40.262C20.9078 39.2677 21.4286 38.3002 22.0022 37.364C22.4419 36.6255 22.9489 35.9292 23.5168 35.284C23.8152 34.8697 24.2652 34.5902 24.7689 34.5065C24.9213 34.5099 25.069 34.5602 25.1919 34.6505C25.3147 34.7409 25.4068 34.8668 25.4555 35.0113C25.6032 35.3418 25.6806 35.6995 25.6827 36.0615C25.6609 36.5917 25.5605 37.1157 25.3848 37.6165C25.1632 38.2832 24.8933 38.9328 24.577 39.5602C24.2252 40.2682 23.8254 40.9514 23.3805 41.6049C22.9394 42.2563 22.4464 42.8709 21.9063 43.4427C21.4224 43.9601 20.8684 44.407 20.2604 44.7705C20.0773 45.2474 19.9222 45.7346 19.7959 46.2296C19.6749 46.6876 19.5838 47.1531 19.5233 47.623C19.4672 48.0432 19.4368 48.4664 19.4324 48.8902C19.4324 49.0013 19.4324 49.1023 19.4324 49.2032C19.4324 49.3042 19.4324 49.39 19.4677 49.4708C19.5738 49.1931 19.7202 48.8296 19.8969 48.3752C20.0736 47.9209 20.2957 47.4463 20.5532 46.9364C20.811 46.4292 21.1135 45.946 21.4569 45.4924C21.785 45.0512 22.1904 44.6731 22.6535 44.3767C23.0944 44.0988 23.6066 43.955 24.1277 43.9627C24.5435 43.9404 24.9546 44.0597 25.2939 44.301C25.5701 44.5183 25.777 44.8112 25.8897 45.1441C26.0002 45.4797 26.0564 45.8308 26.0563 46.1841C26.0546 46.6516 25.9691 47.115 25.8039 47.5523C25.6423 47.9916 25.4757 48.4055 25.299 48.7943C25.1444 49.1482 25.0604 49.529 25.0516 49.9151C25.0321 50.1314 25.0972 50.3467 25.2334 50.5159C25.2939 50.5758 25.3656 50.6231 25.4444 50.6551C25.5233 50.6872 25.6077 50.7034 25.6928 50.7027C26.1329 50.6627 26.5494 50.4862 26.8843 50.1978C27.3895 49.8136 27.8411 49.3637 28.2272 48.8599C28.676 48.2851 29.0618 47.664 29.3783 47.0071L29.7216 47.3554C29.394 48.0978 28.9805 48.7993 28.4898 49.4456C28.0577 50.0356 27.5285 50.5477 26.9247 50.9602C26.3975 51.3231 25.7724 51.5168 25.1324 51.5155C24.8978 51.5303 24.6628 51.4972 24.4414 51.4182C24.2201 51.3392 24.0172 51.216 23.845 51.0561C23.7015 50.909 23.5894 50.7342 23.5157 50.5424C23.4419 50.3505 23.4079 50.1457 23.4158 49.9403C23.4233 49.5753 23.4828 49.2132 23.5925 48.865C23.7086 48.4762 23.8248 48.0774 23.9358 47.6684C24.0359 47.3045 24.0918 46.9299 24.1025 46.5527C24.1164 46.413 24.1026 46.272 24.0619 46.1377C24.0212 46.0034 23.9543 45.8785 23.8652 45.7701C23.7876 45.6931 23.6953 45.6324 23.5938 45.5917C23.4924 45.5509 23.3838 45.5309 23.2745 45.5328C23.0795 45.5353 22.8871 45.5767 22.7085 45.6548C22.5298 45.7328 22.3686 45.8458 22.2344 45.9872C21.897 46.3338 21.6128 46.7285 21.3913 47.1585C21.1277 47.6506 20.8901 48.1562 20.6794 48.6731C20.4573 49.2032 20.2452 49.7081 20.0332 50.1877C19.8635 50.6063 19.6412 51.0016 19.3718 51.3641C19.2925 51.4902 19.1852 51.5963 19.0583 51.6743C18.9313 51.7522 18.7881 51.7998 18.6398 51.8134ZM20.7148 43.5033C21.147 43.1147 21.5425 42.6871 21.8962 42.2259C22.2861 41.7237 22.6468 41.1994 22.9766 40.6558C23.3098 40.1055 23.5976 39.5653 23.85 39.0453C24.1025 38.5252 24.2943 38.0355 24.4458 37.6417C24.5656 37.3311 24.6486 37.0074 24.6931 36.6774C24.7002 36.6544 24.7002 36.6298 24.6931 36.6067C24.6919 36.5996 24.6882 36.5931 24.6827 36.5885C24.6771 36.5839 24.6701 36.5814 24.6629 36.5815C24.5669 36.5815 24.37 36.7784 24.057 37.1671C23.6692 37.6727 23.3086 38.1985 22.9766 38.7423C22.5314 39.463 22.1236 40.2062 21.7548 40.9688C21.3481 41.7877 21.0005 42.6347 20.7148 43.5033Z" fill="#FF4043"/>
<path d="M30.0497 52.0807C29.5748 52.0833 29.1172 51.9024 28.7724 51.5758C28.5804 51.376 28.4333 51.1376 28.341 50.8763C28.2487 50.6151 28.2133 50.3372 28.2372 50.0612C28.2544 49.4523 28.3827 48.8518 28.6159 48.2891C28.8796 47.6313 29.2185 47.0062 29.6256 46.4261C30.0588 45.8172 30.5564 45.257 31.1099 44.755C31.6392 44.2679 32.2361 43.8598 32.882 43.5433C33.4566 43.2468 34.0934 43.091 34.7399 43.0889C35.3213 43.0723 35.8915 43.25 36.3606 43.5938C36.5686 43.7411 36.7369 43.9376 36.8505 44.1658C36.9642 44.3939 37.0196 44.6466 37.0119 44.9014C37.028 45.0687 37.0002 45.2373 36.9311 45.3905C36.862 45.5437 36.7541 45.6762 36.6181 45.7748C36.3258 45.9461 35.98 46.0019 35.6487 45.9313C35.679 45.8102 35.7042 45.6739 35.7295 45.5274C35.7534 45.3874 35.7652 45.2455 35.7648 45.1034C35.7741 44.8045 35.7044 44.5085 35.5629 44.2451C35.4761 44.1153 35.3553 44.0119 35.2138 43.946C35.0722 43.8801 34.9153 43.8543 34.7601 43.8715C34.2875 43.882 33.8287 44.0332 33.4424 44.3057C32.9589 44.6257 32.5223 45.0115 32.1449 45.4517C31.7223 45.9336 31.3486 46.4561 31.0292 47.0118C30.7194 47.5459 30.4624 48.109 30.2617 48.693C30.0894 49.1663 29.9923 49.6638 29.974 50.1672C29.974 50.6721 30.1608 50.9498 30.5495 50.9498C30.9848 50.9209 31.3968 50.7425 31.7158 50.4449C32.1902 50.062 32.6249 49.6324 33.0133 49.1625C33.4525 48.6576 33.8766 48.1124 34.2755 47.5671C34.6743 47.0219 35.0277 46.5574 35.3205 46.1333C35.3862 46.0525 35.4367 46.0172 35.4871 46.0172C35.6117 46.0463 35.7347 46.0817 35.8557 46.1232C36.0184 46.1756 36.173 46.2503 36.3151 46.3453C36.3779 46.3839 36.4296 46.4382 36.465 46.5028C36.5004 46.5675 36.5183 46.6402 36.5171 46.7139C36.4973 46.9232 36.4262 47.1243 36.3101 47.2995L35.8406 48.0922C35.674 48.385 35.5174 48.6778 35.3761 48.9656C35.2413 49.2302 35.1688 49.522 35.164 49.8188C35.1658 50.0278 35.2252 50.2322 35.3357 50.4095C35.3933 50.5047 35.4762 50.582 35.5751 50.6328C35.6741 50.6836 35.7852 50.7059 35.8961 50.6973C36.2798 50.6973 36.8099 50.4247 37.4814 49.8643C38.3274 49.083 39.0237 48.154 39.5362 47.1228L39.9048 47.4914C39.5706 48.2784 39.127 49.0144 38.5871 49.6775C38.1263 50.2548 37.5757 50.7542 36.9563 51.1567C36.4483 51.4936 35.8543 51.6775 35.2448 51.6869C34.9902 51.7058 34.7347 51.664 34.4995 51.5648C34.2642 51.4656 34.0559 51.3119 33.8918 51.1164C33.6014 50.7651 33.4252 50.3335 33.3869 49.8794C33.3869 49.834 33.3869 49.7835 33.3869 49.728C33.3916 49.6793 33.3916 49.6302 33.3869 49.5816C32.8648 50.2424 32.2817 50.8527 31.6451 51.4041C31.2098 51.8108 30.6447 52.0505 30.0497 52.0807Z" fill="#FF4043"/>
<path d="M46.6504 51.5456C46.4155 51.5609 46.1799 51.5295 45.9572 51.4533C45.7345 51.377 45.5291 51.2574 45.3529 51.1013C45.2064 50.9577 45.0914 50.7853 45.0149 50.595C44.9384 50.4047 44.9022 50.2006 44.9086 49.9957C44.9112 49.6525 44.9674 49.3118 45.0752 48.9859C45.1863 48.6426 45.2923 48.2892 45.4034 47.9257C45.511 47.5877 45.5672 47.2354 45.57 46.8806C45.5879 46.7431 45.575 46.6034 45.5322 46.4715C45.4894 46.3397 45.4178 46.219 45.3226 46.1182C45.1545 45.9774 44.9411 45.9021 44.7218 45.9062C44.1976 45.9288 43.697 46.1301 43.3031 46.4767C42.7744 46.8977 42.2966 47.3789 41.8794 47.9105C41.4096 48.4848 40.9746 49.0867 40.5768 49.7129C40.1729 50.339 39.8245 50.8994 39.5317 51.3891C39.2629 51.389 38.9962 51.3412 38.7441 51.2477C38.4933 51.1442 38.2789 50.9685 38.1282 50.7429C38.2048 50.5043 38.2941 50.2701 38.3958 50.0411C38.5573 49.6523 38.7441 49.1778 38.9461 48.6174C39.148 48.057 39.3298 47.4763 39.4964 46.8756C39.6525 46.337 39.7374 45.7802 39.7488 45.2196C39.9006 45.0827 40.0705 44.9671 40.2537 44.8763C40.4563 44.759 40.686 44.6964 40.9201 44.6945C41.425 44.6945 41.6572 44.9217 41.6572 45.366C41.6386 45.6893 41.5913 46.0103 41.5158 46.3252C41.4182 46.7594 41.292 47.2391 41.1372 47.7641C41.549 47.1874 41.9993 46.6392 42.4852 46.1233C42.9419 45.6238 43.4631 45.1875 44.0352 44.8258C44.522 44.5028 45.0918 44.3275 45.676 44.3209C45.9448 44.3023 46.2138 44.3534 46.457 44.4693C46.7002 44.5852 46.9094 44.7619 47.0644 44.9823C47.3596 45.4149 47.5147 45.9278 47.5087 46.4515C47.506 46.8945 47.4257 47.3337 47.2714 47.749C47.1149 48.1579 46.9634 48.5416 46.8119 48.9001C46.6693 49.2391 46.5939 49.6026 46.5898 49.9704C46.5789 50.071 46.588 50.1727 46.6166 50.2698C46.6452 50.3668 46.6927 50.4572 46.7564 50.5359C46.8119 50.5932 46.8787 50.6386 46.9525 50.669C47.0264 50.6994 47.1057 50.7142 47.1855 50.7126C47.6202 50.6863 48.0284 50.4948 48.3265 50.1774C48.7591 49.7732 49.1421 49.319 49.4675 48.8243C49.821 48.2951 50.143 47.7455 50.4319 47.1785L50.7752 47.4814C50.4695 48.1933 50.103 48.8774 49.6796 49.5261C49.3246 50.0903 48.8695 50.5848 48.3366 50.9852C47.8527 51.3547 47.2592 51.552 46.6504 51.5456Z" fill="#FF4043"/>
<path d="M57 52.0203C56.5576 52.0228 56.1305 51.8588 55.8035 51.5609C55.4558 51.2428 55.1833 50.8513 55.0058 50.4149C54.8093 49.962 54.6604 49.4899 54.5615 49.0063C54.4712 48.5983 54.4238 48.1821 54.4201 47.7643C54.6842 47.7189 54.9455 47.6582 55.2027 47.5825C55.5487 47.4853 55.8864 47.3603 56.2124 47.2089C56.5357 47.0589 56.8271 46.8481 57.0707 46.588C57.3003 46.3417 57.4252 46.0158 57.419 45.6792C57.4253 45.5473 57.4018 45.4158 57.3502 45.2943C57.2986 45.1728 57.2203 45.0645 57.1212 44.9774C56.9125 44.7937 56.6417 44.6963 56.3639 44.7048C55.9026 44.7099 55.4557 44.8659 55.0916 45.1491C54.663 45.4766 54.2912 45.8723 53.991 46.3204C53.6496 46.8142 53.3506 47.3361 53.0974 47.8804C52.8298 48.4408 52.5925 48.981 52.3956 49.491C52.1987 50.0009 52.022 50.4452 51.8907 50.8137C51.8061 51.1154 51.6502 51.3925 51.4363 51.6215C51.2571 51.7624 51.033 51.8341 50.8052 51.8235C50.6421 51.8203 50.4859 51.7574 50.366 51.6468C50.2052 51.4881 50.0976 51.2835 50.058 51.0611C49.9824 50.6959 49.9502 50.3231 49.9621 49.9504C49.981 48.9435 50.1166 47.9423 50.366 46.9666C50.6494 45.8221 51.0069 44.6972 51.4363 43.5991C51.8806 42.448 52.367 41.3424 52.8954 40.2821C53.4003 39.2269 53.9556 38.2626 54.4857 37.4347C54.9274 36.7164 55.4345 36.0403 56.0004 35.4152C56.4648 34.9103 56.8435 34.668 57.1363 34.673C57.2714 34.6837 57.4004 34.7333 57.5079 34.8157C57.6154 34.8981 57.6968 35.0099 57.7422 35.1375C57.9132 35.4964 57.9946 35.8914 57.9795 36.2886C57.9603 36.8882 57.8408 37.4804 57.626 38.0405C57.3659 38.7253 57.027 39.3776 56.6163 39.9843C56.1758 40.6502 55.6682 41.2694 55.1017 41.8321C54.5236 42.4093 53.8737 42.9098 53.168 43.3214C52.7304 44.3554 52.3808 45.4245 52.123 46.5173C51.9043 47.4112 51.7574 48.3212 51.6837 49.2385C51.9462 48.6074 52.2593 47.9511 52.6177 47.2695C52.9673 46.5942 53.3673 45.9461 53.8143 45.3308C54.2067 44.7648 54.6874 44.2654 55.238 43.8516C55.7002 43.4921 56.2681 43.2951 56.8536 43.2912C57.4348 43.2885 57.9936 43.5153 58.4086 43.9222C58.6212 44.1234 58.7887 44.3673 58.9001 44.638C59.0115 44.9087 59.0642 45.1999 59.0548 45.4924C59.0651 45.9277 58.9301 46.354 58.6711 46.7041C58.4197 47.0419 58.104 47.3267 57.7422 47.5422C57.4016 47.7452 57.0369 47.9046 56.6567 48.0167C56.3625 48.1109 56.0566 48.1636 55.7479 48.1732C55.7732 48.36 55.8287 48.6074 55.9044 48.9154C55.9837 49.2365 56.0936 49.5493 56.2326 49.8494C56.3647 50.1448 56.5476 50.4148 56.7728 50.6471C56.8701 50.7503 56.9875 50.8327 57.1177 50.8891C57.2479 50.9455 57.3882 50.9748 57.5301 50.9753C57.9852 50.9611 58.4195 50.7816 58.7519 50.4704C59.2076 50.0665 59.6067 49.6028 59.9383 49.0921C60.3438 48.4854 60.6935 47.8433 60.9834 47.1736L61.2611 47.522C61.0022 48.2878 60.6494 49.0187 60.211 49.698C59.806 50.3423 59.2937 50.9127 58.6964 51.3842C58.2185 51.781 57.6209 52.0051 57 52.0203ZM53.7335 41.9936C54.2879 41.5241 54.7951 41.0016 55.2481 40.4336C55.7184 39.8638 56.1247 39.2442 56.4598 38.5858C56.7471 38.0555 56.9191 37.4706 56.9647 36.8692C56.9652 36.8307 56.9565 36.7926 56.9394 36.7581C56.788 36.7884 56.5355 37.0459 56.1872 37.5356C55.7626 38.146 55.37 38.7779 55.0108 39.4289C54.5817 40.2064 54.1576 41.0596 53.7335 41.9936Z" fill="#FF4043"/>
<path d="M20.397 73.356C19.9307 73.3542 19.4774 73.2019 19.1045 72.9218C18.9077 72.7675 18.7521 72.5669 18.6517 72.3378C18.5512 72.1088 18.5091 71.8584 18.529 71.6091C18.5225 71.0245 18.699 70.4526 19.0338 69.9733C19.4082 69.4649 19.8636 69.0214 20.3818 68.6607C20.9586 68.2505 21.5644 67.8826 22.1943 67.5601C22.8675 67.2235 23.5188 66.8869 24.1482 66.5503C24.3804 65.9596 24.6278 65.2427 24.9004 64.3895C25.1731 63.5363 25.4053 62.6931 25.6274 61.8651C25.0702 62.6884 24.4308 63.453 23.719 64.1471C23.4298 64.4499 23.0829 64.6916 22.6988 64.8581C22.3147 65.0246 21.9011 65.1124 21.4825 65.1165C21.117 65.1102 20.7559 65.0366 20.4172 64.8994C20.0413 64.7486 19.7193 64.4883 19.4933 64.1522C19.2342 63.7388 19.1074 63.2562 19.1298 62.7689C19.1489 62.1537 19.2439 61.5432 19.4125 60.9513C19.5943 60.2526 19.8255 59.5676 20.1042 58.9016C20.3386 58.3233 20.6277 57.7688 20.9675 57.2456C21.2637 56.8013 21.5262 56.5791 21.7551 56.5791C21.9116 56.5944 22.0648 56.6336 22.2095 56.6953C22.4258 56.7749 22.6311 56.8818 22.8204 57.0133C22.9877 57.1072 23.1137 57.2603 23.1738 57.4425C22.9508 57.7604 22.7581 58.0984 22.5982 58.4522C22.1371 59.4236 21.7735 60.4383 21.5128 61.4814C21.3998 61.9087 21.3354 62.3473 21.3209 62.789C21.3127 63.0564 21.3754 63.3212 21.5027 63.5565C21.5781 63.6686 21.6831 63.7577 21.8061 63.8139C21.9291 63.87 22.0652 63.891 22.1994 63.8745C22.6658 63.85 23.1111 63.6726 23.4666 63.3696C23.9615 62.9807 24.4074 62.5332 24.7944 62.0368C25.2251 61.5132 25.6182 60.9598 25.9708 60.3808C26.0361 60.1712 26.0851 59.9568 26.1172 59.7396C26.1605 59.4659 26.2178 59.1946 26.2888 58.9268C26.382 58.5987 26.5437 58.2941 26.7634 58.0332C26.8871 57.8882 27.0425 57.7736 27.2176 57.6983C27.3927 57.623 27.5828 57.589 27.7731 57.599C27.9016 57.5986 28.03 57.6088 28.1568 57.6293L28.5961 57.7151C28.5494 58.2794 28.4462 58.8375 28.2881 59.3812C28.0862 60.2058 27.8203 61.1634 27.4904 62.2539C27.1622 63.3394 26.7886 64.4349 26.3646 65.5305C27.2975 65.1482 28.1529 64.599 28.8889 63.9099C29.8245 63.0344 30.5421 61.952 30.9841 60.7494L31.4385 61.0927C31.1736 61.9908 30.7287 62.8256 30.1309 63.5464C29.5654 64.2213 28.9057 64.8113 28.172 65.2983C27.4851 65.7618 26.7586 66.1639 26.001 66.4998C25.5116 67.6701 24.9553 68.8113 24.335 69.9178C23.8366 70.8471 23.2037 71.6977 22.4569 72.4422C21.9133 73.0003 21.1756 73.3276 20.397 73.356ZM20.1749 72.3462C20.5182 72.3462 21.018 71.9726 21.6895 71.2204C22.5361 70.1337 23.2167 68.9274 23.7089 67.6408C23.0358 67.9774 22.3879 68.3494 21.7652 68.7566C21.1897 69.118 20.6622 69.5506 20.195 70.044C19.8024 70.4361 19.5748 70.9636 19.5589 71.5182C19.5627 71.7086 19.6112 71.8953 19.7003 72.0635C19.7419 72.1535 19.8091 72.2293 19.8935 72.2814C19.9779 72.3335 20.0757 72.3595 20.1749 72.3563V72.3462Z" fill="#FF4043"/>
<path d="M32.3065 66.3636C31.9702 66.3974 31.6311 66.3385 31.3259 66.1935C31.0207 66.0484 30.7609 65.8227 30.5748 65.5406C30.2485 64.9842 30.0842 64.3477 30.1002 63.7029C30.1077 63.076 30.2064 62.4536 30.393 61.8551C30.5824 61.2393 30.8433 60.648 31.1705 60.0931C31.4595 59.5927 31.8278 59.1426 32.261 58.7602C32.5952 58.4487 33.0312 58.2693 33.4879 58.2554C33.6288 58.2603 33.7683 58.2858 33.9019 58.3311C34.0332 58.3636 34.1545 58.4277 34.2553 58.5179C33.9951 58.8135 33.7682 59.1369 33.5787 59.4822C33.3303 59.9172 33.1094 60.3674 32.9174 60.8302C32.7144 61.3004 32.5457 61.7847 32.4125 62.2792C32.2926 62.7101 32.2281 63.1546 32.2206 63.6019C32.2009 63.9525 32.2777 64.3018 32.4428 64.6117C32.5198 64.7353 32.6292 64.8355 32.7592 64.9014C32.8891 64.9672 33.0346 64.9962 33.1799 64.9853C33.6848 64.9358 34.1598 64.7231 34.5329 64.3794C35.0931 63.9444 35.6013 63.4463 36.0476 62.8951C35.4831 62.4096 35.0418 61.7971 34.7601 61.1079C34.4804 60.3768 34.3449 59.5984 34.3613 58.8158C34.374 58.2952 34.4835 57.7816 34.6844 57.3012C34.8889 56.7803 35.2246 56.3212 35.6588 55.9683C36.1523 55.6042 36.7582 55.4254 37.3703 55.4634C37.6814 55.4319 37.9954 55.4771 38.285 55.595C38.5746 55.713 38.8308 55.9001 39.0313 56.1399C39.349 56.6156 39.5097 57.1788 39.4908 57.7505C39.4596 58.573 39.2657 59.3812 38.9203 60.1284C38.5505 61.0072 38.1045 61.8518 37.5874 62.6528C37.8543 62.807 38.1576 62.8872 38.4659 62.885C38.8104 62.8737 39.151 62.809 39.4756 62.6932C39.9005 62.5479 40.2932 62.3216 40.6318 62.0267C41.0248 61.692 41.3342 61.2702 41.5355 60.7948L41.9899 61.1382C41.6638 61.9656 41.0886 62.6713 40.344 63.1576C39.7423 63.5503 39.0429 63.7672 38.3245 63.7837C38.0752 63.7835 37.8266 63.7581 37.5824 63.708C37.3463 63.667 37.117 63.594 36.9008 63.4909C36.2686 64.2615 35.5329 64.941 34.7147 65.5103C34.0187 66.0355 33.1778 66.3335 32.3065 66.3636ZM36.7089 62.057C37.1958 61.3937 37.6025 60.6752 37.9206 59.9164C38.2154 59.247 38.3783 58.527 38.4003 57.7959C38.4287 57.4368 38.3571 57.0768 38.1933 56.7559C38.1338 56.655 38.0489 56.5716 37.947 56.514C37.845 56.4563 37.7297 56.4266 37.6127 56.4277C37.3736 56.4569 37.1449 56.5426 36.9456 56.6778C36.7462 56.813 36.582 56.9938 36.4666 57.2052C36.0677 57.7846 35.8643 58.4762 35.886 59.1793C35.8955 59.6905 35.965 60.1988 36.093 60.6939C36.1969 61.1876 36.4071 61.6528 36.7089 62.057Z" fill="#FF4043"/>
<path d="M43.0904 66.3634C42.7736 66.3602 42.4628 66.2765 42.1873 66.1202C41.9117 65.9639 41.6805 65.74 41.5152 65.4697C41.1083 64.8648 40.8985 64.1488 40.9144 63.42C40.933 62.7849 41.028 62.1543 41.1972 61.5419C41.3785 60.8228 41.6062 60.1162 41.8787 59.4265C42.1 58.8259 42.3843 58.2505 42.7269 57.7099C43.0197 57.2555 43.2823 57.0283 43.5145 57.0283C43.72 57.0544 43.9178 57.1232 44.0951 57.2303C44.3409 57.3648 44.5655 57.5349 44.7615 57.7351C44.4686 58.1861 44.2136 58.6606 43.9992 59.1538C43.6914 59.8229 43.4267 60.5109 43.2065 61.2137C42.9874 61.8651 42.8682 62.546 42.8531 63.2332C42.8531 63.3291 42.8531 63.5209 42.8935 63.8138C42.9159 64.0963 42.9912 64.372 43.1157 64.6266C43.1718 64.7468 43.2633 64.8469 43.3778 64.9137C43.4924 64.9804 43.6246 65.0106 43.7568 65.0002C44.1584 64.9664 44.5337 64.7868 44.812 64.4954C45.247 64.0818 45.6348 63.6212 45.9682 63.1221C46.379 62.5283 46.7582 61.9131 47.1041 61.2793C47.4676 60.6129 47.8059 59.9818 48.1139 59.376C48.4218 58.7701 48.6692 58.2602 48.8661 57.8614C49.072 57.8941 49.2759 57.9379 49.477 57.9926C49.7149 58.0565 49.9438 58.1498 50.1586 58.2703C50.2537 58.3138 50.3329 58.3857 50.3854 58.4761C50.4378 58.5666 50.4609 58.6711 50.4514 58.7752C50.3832 59.0189 50.2919 59.2556 50.1788 59.482C49.997 59.901 49.7799 60.4009 49.5326 60.9966C49.2812 61.5793 49.0637 62.176 48.8813 62.7838C48.7109 63.2974 48.6173 63.8333 48.6036 64.3742C48.5916 64.632 48.6491 64.8884 48.7702 65.1163C48.8365 65.2265 48.9333 65.3152 49.0488 65.3717C49.1644 65.4281 49.2938 65.4499 49.4215 65.4344C49.9415 65.3929 50.4397 65.2076 50.8604 64.8992C51.5123 64.4646 52.0959 63.9354 52.5921 63.3291C53.2212 62.5819 53.7522 61.7573 54.1723 60.8754L54.5661 61.1935C54.1624 62.1799 53.6164 63.1018 52.9455 63.9299C52.351 64.6719 51.6359 65.3085 50.8301 65.8131C50.1778 66.2315 49.4237 66.4637 48.649 66.4845C48.2118 66.5099 47.7795 66.3813 47.4272 66.121C47.1397 65.8812 46.9362 65.5557 46.8466 65.1921C46.7455 64.8116 46.6945 64.4195 46.6952 64.0258C46.6952 63.8895 46.6952 63.7481 46.6952 63.5967C46.6952 63.4452 46.6952 63.3039 46.7406 63.1726C46.4172 63.7191 46.058 64.2437 45.6652 64.7427C45.3139 65.2069 44.9012 65.6214 44.4384 65.9746C44.0429 66.2464 43.5699 66.3828 43.0904 66.3634Z" fill="#FF4043"/>
<path d="M93.2087 51.9042C93.1903 51.7659 93.1616 51.6292 93.1229 51.4952L93.0472 51.1822L92.9512 50.854L92.7695 50.2028C92.6433 49.7736 92.517 49.3344 92.3858 48.9052C91.3357 45.4721 90.1038 42.1299 88.7861 38.8078C87.4683 35.4858 85.252 32.6686 83.6667 29.4425L77.6991 33.9308C79.133 37.0156 81.0969 38.2525 82.46 41.413C83.8232 44.5735 85.1409 47.7289 86.3273 50.8995C86.3728 51.0156 86.4182 51.1317 86.4586 51.2478C86.3223 51.2478 86.1809 51.2478 86.0446 51.2478C85.2823 51.2478 84.4795 51.2478 83.6616 51.162C80.385 50.9146 76.1441 49.5161 72.7615 49.0214L72.4636 52.9593C75.8357 54.449 79.3351 55.6318 82.9195 56.4934C83.8518 56.6944 84.7938 56.8477 85.7417 56.9529C86.843 57.0917 87.9574 57.0917 89.0587 56.9529C89.4348 56.8969 89.8061 56.8125 90.1694 56.7004C90.6777 56.5321 91.1564 56.2851 91.5881 55.9684C92.2256 55.4879 92.714 54.8368 92.9967 54.0903C93.2507 53.3911 93.3236 52.6391 93.2087 51.9042Z" fill="#FFBBB5"/>
<path d="M82.4656 27.5138C84.7224 28.3569 87.9535 36.7832 87.9535 36.7832L77.6693 42.2812C77.6693 42.2812 74.7108 34.4658 75.8569 31.5527C77.0585 28.5134 79.8857 26.5495 82.4656 27.5138Z" fill="#FF4043"/>
<path d="M72.6709 52.9592C72.6709 52.9592 69.7629 53.4893 69.7124 52.2019C69.6619 50.9145 69.4095 47.6833 69.4095 47.6833C69.4095 47.6833 65.8501 48.0115 65.8754 47.6833C65.941 47.0472 67.809 46.926 67.809 46.926C67.809 46.926 65.5674 46.926 65.4715 46.4212C65.3503 45.7901 68.2382 45.9163 68.1069 45.9718C67.9756 46.0274 65.1585 44.8914 66.5418 44.7854C67.9251 44.6794 69.3994 44.5077 70.3384 45.2398C71.2775 45.9718 73.3676 49.6119 73.3676 49.6119L72.6709 52.9592Z" fill="#FFBBB5"/>
</svg>
